<svg width="991.59174" height="1057.382" xmlns="http://www.w3.org/2000/svg" xmlns:xlink="http://www.w3.org/1999/xlink">
 <defs>
  <filter id="bd">
   <feGaussianBlur stdDeviation="1.71978"/>
  </filter>
  <filter id="n"/>
  <linearGradient id="o">
   <stop offset="0"/>
   <stop offset="1" stop-opacity="0"/>
  </linearGradient>
  <linearGradient id="p">
   <stop offset="0" stop-color="#28220b"/>
   <stop offset="1" stop-opacity="0" stop-color="#28220b"/>
  </linearGradient>
  <linearGradient id="m">
   <stop offset="0" stop-color="#fff"/>
   <stop offset="0.30407" stop-color="#ccc"/>
   <stop offset="0.54893" stop-color="#727272"/>
   <stop offset="0.85089" stop-color="#505050"/>
   <stop offset="1" stop-color="#929292"/>
  </linearGradient>
  <linearGradient id="r">
   <stop offset="0" stop-color="#603538"/>
   <stop offset="0.61608" stop-color="#573032"/>
   <stop offset="1" stop-color="#341c1e"/>
  </linearGradient>
  <linearGradient id="b">
   <stop offset="0" stop-color="#fefefe"/>
   <stop offset="1" stop-opacity="0" stop-color="#252525"/>
  </linearGradient>
  <linearGradient id="c">
   <stop offset="0"/>
   <stop offset="0.16701" stop-color="#333"/>
   <stop offset="0.45187" stop-color="#969696"/>
   <stop offset="1" stop-opacity="0.09964" stop-color="#666"/>
  </linearGradient>
  <linearGradient y2="-5.15082" y1="-5.15082" x2="0.99024" x1="0.05759" id="h">
   <stop offset="0"/>
   <stop offset="0.19752" stop-color="#b7c4c8"/>
   <stop offset="0.57062" stop-color="#3e4551"/>
   <stop offset="0.76903" stop-color="#e2e4e9"/>
   <stop offset="1"/>
  </linearGradient>
  <linearGradient y2="-5.15082" y1="-5.15082" x2="0.97935" x1="-0.0165" id="f">
   <stop offset="0" stop-color="#030405"/>
   <stop offset="0.5" stop-color="#565656"/>
   <stop offset="1" stop-color="#cfcfcf"/>
  </linearGradient>
  <linearGradient x1="-12.60356" y2="0.92328" y1="-0.02104" x2="-12.60356" id="ao">
   <stop offset="0" stop-color="#fff"/>
   <stop offset="0.20285" stop-color="#ccc"/>
   <stop offset="0.54893" stop-color="#727272"/>
   <stop offset="0.77781" stop-color="#505050"/>
   <stop offset="1" stop-color="#929292"/>
  </linearGradient>
  <linearGradient y2="0.1138" y1="0.61701" x2="0.67709" x1="0.66841" id="e">
   <stop offset="0" stop-color="#7b97b5"/>
   <stop offset="0.5" stop-color="#565656"/>
   <stop offset="1" stop-color="#cfcfcf"/>
  </linearGradient>
  <linearGradient x1="-12.60356" y2="0.94266" y1="0.23686" x2="-12.60356" id="q">
   <stop offset="0" stop-color="#fff"/>
   <stop offset="0.20285" stop-color="#ccc"/>
   <stop offset="0.54893" stop-color="#727272"/>
   <stop offset="0.71997" stop-color="#505050"/>
   <stop offset="1" stop-color="#929292"/>
  </linearGradient>
  <linearGradient x1="-12.71644" y2="0.13474" y1="0.94805" x2="-12.71644" id="an">
   <stop offset="0" stop-color="#fff"/>
   <stop offset="0.14501" stop-color="#ccc"/>
   <stop offset="0.55634" stop-color="#727272"/>
   <stop offset="0.79288" stop-color="#505050"/>
   <stop offset="1" stop-color="#929292"/>
  </linearGradient>
  <linearGradient y2="-1.36918" y1="-1.36918" x2="1.07706" x1="-0.00373" id="al">
   <stop offset="0" stop-color="#e8d3ca"/>
   <stop offset="0.04239" stop-color="#4a2a14"/>
   <stop offset="0.18307" stop-color="#2d1a0b"/>
   <stop offset="0.37426" stop-color="#28170b"/>
   <stop offset="0.53347" stop-color="#a05a2c"/>
   <stop offset="0.73317" stop-color="#050301"/>
   <stop offset="0.84631" stop-color="#502d16"/>
   <stop offset="0.92156" stop-color="#e9c6af"/>
   <stop offset="1" stop-opacity="0" stop-color="#774335"/>
  </linearGradient>
  <linearGradient x1="-4.11013" y2="5.57363" y1="6.07395" x2="-4.67519" id="aj">
   <stop offset="0" stop-color="#c8c49d"/>
   <stop offset="0.35046" stop-color="#ece7b6"/>
   <stop offset="0.39055" stop-color="#b6ab80"/>
   <stop offset="0.41449" stop-color="#e6e1b2"/>
   <stop offset="0.67717" stop-color="#e4deaf"/>
   <stop offset="0.70375" stop-color="#baaf84"/>
   <stop offset="0.74033" stop-color="#e2deaf"/>
   <stop offset="1" stop-color="#cac69e"/>
  </linearGradient>
  <linearGradient y2="2.11947" y1="2.08625" x2="2.14544" x1="2.17319" id="ai">
   <stop offset="0"/>
   <stop offset="0.5" stop-color="#8a413d"/>
   <stop offset="0.68647" stop-color="#9a3f54"/>
   <stop offset="1" stop-color="#211a17"/>
  </linearGradient>
  <linearGradient y2="-5.15082" y1="-5.15082" x2="0.99024" x1="0.05759" id="ah">
   <stop offset="0"/>
   <stop offset="0.12511" stop-color="#b7c4c8"/>
   <stop offset="0.78784" stop-color="#3e4551"/>
   <stop offset="0.78914" stop-color="#e2e4e9"/>
   <stop offset="1"/>
  </linearGradient>
  <linearGradient x1="-12.9783" y2="0.93465" y1="-0.03429" x2="-12.9783" id="ag">
   <stop offset="0" stop-color="#fff"/>
   <stop offset="0.20285" stop-color="#ccc"/>
   <stop offset="0.62302" stop-color="#727272"/>
   <stop offset="0.63606" stop-color="#505050"/>
   <stop offset="1" stop-color="#929292"/>
  </linearGradient>
  <linearGradient x1="-12.71644" y2="0.19373" y1="0.8319" x2="-12.71644" id="af">
   <stop offset="0" stop-color="#fff"/>
   <stop offset="0.21558" stop-color="#ccc"/>
   <stop offset="0.46216" stop-color="#727272"/>
   <stop offset="0.5917" stop-color="#505050"/>
   <stop offset="1" stop-color="#929292"/>
  </linearGradient>
  <linearGradient x1="-47.83045" y2="0.09581" y1="0.88695" x2="-47.83045" id="d">
   <stop offset="0" stop-color="#252525"/>
   <stop offset="1" stop-opacity="0" stop-color="#252525"/>
  </linearGradient>
  <linearGradient y2="1.00023" y1="0.00012" x2="2.50087" x1="2.50087" id="ad">
   <stop offset="0" stop-color="#896f6a"/>
   <stop offset="0.20884" stop-color="#5f4d4d"/>
   <stop offset="0.50863" stop-color="#493946"/>
   <stop offset="0.75353" stop-color="#282129"/>
   <stop offset="1" stop-color="#201007"/>
  </linearGradient>
  <linearGradient x1="3.64333" y2="-3.34403" y1="-4.15379" x2="4.46664" id="bb">
   <stop offset="0" stop-color="#291f22"/>
   <stop offset="0.09442" stop-color="#473338"/>
   <stop offset="0.16476" stop-color="#291a21"/>
   <stop offset="0.5128" stop-color="#2b1b22"/>
   <stop offset="0.81597" stop-color="#2b1c24"/>
   <stop offset="0.87126" stop-color="#3f333d"/>
   <stop offset="1" stop-color="#1e1618"/>
  </linearGradient>
  <linearGradient x1="-0.72567" y2="-0.68969" y1="-0.46594" x2="-0.53963" id="ba">
   <stop offset="0" stop-color="#483945"/>
   <stop offset="1" stop-color="#917673"/>
  </linearGradient>
  <linearGradient y2="-0.13193" y1="-0.25076" x2="1.25734" x1="1.11402" id="as">
   <stop offset="0" stop-color="#432527"/>
   <stop offset="0.27362" stop-color="#2f1c22"/>
   <stop offset="0.79932" stop-color="#643d3d"/>
   <stop offset="1"/>
  </linearGradient>
  <linearGradient y2="-0.25412" y1="-0.70582" x2="1.66388" x1="1.15501" id="ar">
   <stop offset="0" stop-color="#ffd116"/>
   <stop offset="0.14344" stop-color="#ffd73b"/>
   <stop offset="0.2974" stop-color="#fc0"/>
   <stop offset="0.54329" stop-color="#e3a500"/>
   <stop offset="0.76311" stop-color="#ffce06"/>
   <stop offset="1" stop-color="#f4ab00"/>
  </linearGradient>
  <linearGradient y2="0.05195" y1="0.85492" x2="0.59618" x1="0.44832" id="aq">
   <stop offset="0" stop-color="#806600"/>
   <stop offset="1" stop-opacity="0.30961" stop-color="#806600"/>
  </linearGradient>
  <linearGradient y2="-0.23325" y1="-0.38255" x2="1.38752" x1="1.20569" id="ap">
   <stop offset="0" stop-color="#432527"/>
   <stop offset="0.7187" stop-color="#2f1c22"/>
   <stop offset="0.78787" stop-color="#643d3d"/>
   <stop offset="1"/>
  </linearGradient>
  <linearGradient x1="-23.75108" xlink:href="#m" y2="0.88121" y1="0.10966" x2="-23.75108" id="i"/>
  <linearGradient x1="-23.75108" xlink:href="#m" y2="0.21069" y1="0.87762" x2="-23.75108" id="am"/>
  <linearGradient y2="-1.36918" y1="-1.36918" xlink:href="#o" x2="1.02284" x1="-0.00373" id="ak"/>
  <linearGradient x1="-23.75108" xlink:href="#m" y2="0.18768" y1="0.88121" x2="-23.75108" id="ae"/>
  <linearGradient x1="-47.83045" xlink:href="#o" y2="0.23229" y1="1.26277" x2="-47.83045" id="l"/>
  <linearGradient x1="-2.13734" xlink:href="#p" y2="-2.28892" y1="-2.21675" x2="-2.0814" id="bc"/>
  <linearGradient x1="-26.36825" xlink:href="#b" y2="-22.98521" y1="-23.32831" x2="-26.68865" id="az"/>
  <linearGradient x1="-26.36906" xlink:href="#b" y2="-22.98525" y1="-23.32835" x2="-26.68947" id="ay"/>
  <linearGradient x1="-26.36934" xlink:href="#b" y2="-22.98519" y1="-23.3283" x2="-26.68974" id="ax"/>
  <linearGradient x1="-26.37001" xlink:href="#b" y2="-22.98423" y1="-23.32733" x2="-26.69042" id="aw"/>
  <linearGradient x1="-26.36835" xlink:href="#b" y2="-22.98603" y1="-23.32913" x2="-26.68876" id="av"/>
  <linearGradient x1="-26.36835" xlink:href="#b" y2="-22.98491" y1="-23.32801" x2="-26.68876" id="au"/>
  <linearGradient y2="2.36045" y1="1.65234" xlink:href="#p" x2="1.82898" x1="2.48593" id="at"/>
  <radialGradient gradientUnits="userSpaceOnUse" gradientTransform="matrix(-.8346 .70149 -.70587 -.83981 229.46 -59.157)" r="1.24" cy="13.548" cx="119.86" id="g">
   <stop offset="0"/>
   <stop offset="0.44899" stop-color="#666"/>
   <stop offset="0.66919" stop-color="#d6d6d6"/>
   <stop offset="0.8619" stop-color="#444"/>
   <stop offset="0.90836" stop-color="#595959"/>
   <stop offset="1" stop-color="#e1e1e1"/>
  </radialGradient>
  <radialGradient gradientUnits="userSpaceOnUse" gradientTransform="matrix(-.8346 .70149 -.70587 -.83981 229.46 -59.157)" r="1.24" cy="13.548" cx="119.86" id="s">
   <stop offset="0"/>
   <stop offset="0.34995" stop-color="#3e3e3e"/>
   <stop offset="0.66919" stop-color="#d6d6d6"/>
   <stop offset="0.79182" stop-color="#777"/>
   <stop offset="0.85367" stop-color="#717171"/>
   <stop offset="1" stop-color="#e1e1e1"/>
  </radialGradient>
  <radialGradient gradientUnits="userSpaceOnUse" gradientTransform="matrix(.026468 .55959 -.61304 .028997 124.34 -54.092)" r="3.1028" cy="13.038" cx="119.53" id="k">
   <stop offset="0" stop-color="#fff"/>
   <stop offset="0.4785" stop-color="#ccc"/>
   <stop offset="0.67369" stop-color="#727272"/>
   <stop offset="0.80341" stop-color="#505050"/>
   <stop offset="1" stop-color="#929292"/>
  </radialGradient>
  <radialGradient gradientUnits="userSpaceOnUse" gradientTransform="matrix(.026468 .55959 -.61304 .028997 124.34 -54.092)" r="3.1028" cy="13.038" cx="119.53" id="j">
   <stop offset="0" stop-color="#fff"/>
   <stop offset="0.30407" stop-color="#ccc"/>
   <stop offset="0.54893" stop-color="#727272"/>
   <stop offset="0.71997" stop-color="#505050"/>
   <stop offset="1" stop-color="#929292"/>
  </radialGradient>
  <radialGradient gradientUnits="userSpaceOnUse" gradientTransform="matrix(3.2794 3.1008 -4.704 4.975 1132.3 -521.29)" r="14.827" cy="182.33" cx="84.53" id="ac">
   <stop offset="0" stop-color="#333"/>
   <stop offset="1"/>
  </radialGradient>
  <radialGradient gradientUnits="userSpaceOnUse" gradientTransform="matrix(-1.3535 1.4967 -.90241 -.81606 1104.1 211.42)" r="35.467" cy="163.28" cx="38.923" id="u">
   <stop offset="0" stop-color="#432527"/>
   <stop offset="0.5" stop-color="#2f1c22"/>
   <stop offset="0.82761" stop-color="#643d3d"/>
   <stop offset="1"/>
  </radialGradient>
  <radialGradient xlink:href="#c" gradientUnits="userSpaceOnUse" gradientTransform="matrix(-1.4561 1.6102 -2.6108 -2.361 1119.5 7.0201)" r="1.5098" cy="15.303" cx="119.85" id="ab"/>
  <radialGradient xlink:href="#c" gradientUnits="userSpaceOnUse" gradientTransform="matrix(-1.4561 1.6102 -2.6108 -2.361 1090.4 -19.246)" r="1.5098" cy="15.303" cx="119.85" id="aa"/>
  <radialGradient xlink:href="#c" gradientUnits="userSpaceOnUse" gradientTransform="matrix(-1.4561 1.6102 -2.6108 -2.361 1107.3 -40.908)" r="1.5098" cy="15.303" cx="119.85" id="z"/>
  <radialGradient xlink:href="#c" gradientUnits="userSpaceOnUse" gradientTransform="matrix(-1.4561 1.6102 -2.6108 -2.361 1139.1 -12.281)" r="1.5098" cy="15.303" cx="119.85" id="y"/>
  <radialGradient xlink:href="#c" gradientUnits="userSpaceOnUse" gradientTransform="matrix(-1.4561 1.6102 -2.6108 -2.361 1158.3 -31.938)" r="1.5098" cy="15.303" cx="119.85" id="x"/>
  <radialGradient xlink:href="#c" gradientUnits="userSpaceOnUse" gradientTransform="matrix(-1.4561 1.6102 -2.6108 -2.361 1125.5 -61.391)" r="1.5098" cy="15.303" cx="119.85" id="w"/>
  <radialGradient xlink:href="#r" gradientUnits="userSpaceOnUse" gradientTransform="matrix(1.3885 1.1798 -2.0712 2.4376 792.77 -103.33)" r="20.177" cy="28.002" cx="128.99" id="v"/>
  <radialGradient xlink:href="#r" gradientUnits="userSpaceOnUse" gradientTransform="matrix(1.3514 1.2221 -2.0712 2.2904 801.56 -92.159)" r="20.177" cy="25.342" cx="132.24" id="t"/>
  <radialGradient y2="1" y1="1" x2="1" x1="1" gradientUnits="userSpaceOnUse" r="10.057" cy="516.51" cx="1545.4" id="svg_1">
   <stop offset="0"/>
   <stop offset="0.16306"/>
   <stop offset="0.65705" stop-color="#eceddf"/>
   <stop offset="0.88942" stop-color="#7e6d53"/>
   <stop offset="1" stop-color="#2d261d"/>
  </radialGradient>
  <radialGradient y2="1" y1="1" x2="1" x1="1" gradientUnits="userSpaceOnUse" r="10.057" cy="516.51" cx="1545.4" id="svg_2">
   <stop offset="0"/>
   <stop offset="0.16306"/>
   <stop offset="0.65705" stop-color="#eceddf"/>
   <stop offset="0.88942" stop-color="#7e6d53"/>
   <stop offset="1" stop-color="#2d261d"/>
  </radialGradient>
  <radialGradient y2="1" y1="1" x2="1" x1="1" gradientUnits="userSpaceOnUse" r="10.057" cy="516.51" cx="1545.4" id="svg_3">
   <stop offset="0"/>
   <stop offset="0.16306"/>
   <stop offset="0.65705" stop-color="#eceddf"/>
   <stop offset="0.88942" stop-color="#7e6d53"/>
   <stop offset="1" stop-color="#2d261d"/>
  </radialGradient>
  <radialGradient y2="1" y1="1" x2="1" x1="1" gradientUnits="userSpaceOnUse" r="10.057" cy="516.51" cx="1545.4" id="svg_4">
   <stop offset="0"/>
   <stop offset="0.16306"/>
   <stop offset="0.65705" stop-color="#eceddf"/>
   <stop offset="0.88942" stop-color="#7e6d53"/>
   <stop offset="1" stop-color="#2d261d"/>
  </radialGradient>
  <radialGradient y2="1" y1="1" x2="1" x1="1" gradientUnits="userSpaceOnUse" r="10.057" cy="516.51" cx="1545.4" id="svg_5">
   <stop offset="0"/>
   <stop offset="0.16306"/>
   <stop offset="0.65705" stop-color="#eceddf"/>
   <stop offset="0.88942" stop-color="#7e6d53"/>
   <stop offset="1" stop-color="#2d261d"/>
  </radialGradient>
  <radialGradient y2="1" y1="1" x2="1" x1="1" gradientUnits="userSpaceOnUse" r="10.057" cy="516.51" cx="1545.4" id="svg_6">
   <stop offset="0"/>
   <stop offset="0.16306"/>
   <stop offset="0.65705" stop-color="#eceddf"/>
   <stop offset="0.88942" stop-color="#7e6d53"/>
   <stop offset="1" stop-color="#2d261d"/>
  </radialGradient>
 </defs>
 <g>
  <title>background</title>
  <rect fill="none" id="canvas_background" height="602" width="802" y="-1" x="-1"/>
 </g>
 <g>
  <title>Layer 1</title>
  <g stroke="null" transform="rotate(47.27606201171875 468.83621215820295,548.3588867187501) " id="svg_121">
   <g stroke="null" id="svg_7" fill-rule="evenodd" transform="matrix(1.1497369591579831,1.0013871618527006,-1.0313091178713238,1.0984039689579783,1052.8071974532127,-277.10850694326814) ">
    <path stroke="url(#f)" id="svg_8" stroke-width="0.3" fill="url(#h)" d="m56.14122,369.87447c0.63324,-0.53013 4.5183,-0.41981 5.3463,-0.00836c2.2048,1.77 2.9628,7.7379 -0.524,8.6301c-1.0325,0.45305 -2.9559,0.49095 -4.8223,0c-1.4425,-0.26011 -1.6756,-1.1707 -1.851,-1.9484c-0.31445,-2.4664 -0.00843,-5.6059 1.851,-6.6733l0,-0.00004z"/>
    <path stroke="url(#e)" id="svg_9" stroke-width="0.3" fill="url(#ao)" d="m55.94122,371.96847c1.2665,-0.384 4.0917,-0.31404 4.9198,0.09742c1.9317,0.93948 1.6467,5.8136 0.09742,6.4298c-1.0325,0.45305 -2.9559,0.49095 -4.8223,0c-1.4425,-0.26011 -1.6756,-1.1707 -1.851,-1.9484c-0.31445,-2.4664 -0.20327,-3.5113 1.6562,-4.5788l-0.00012,-0.00002z"/>
    <path stroke="#adadad" id="svg_10" stroke-width="0.111" fill="url(#i)" d="m63.98122,373.04947l1.574,0c0.85632,0 1.5457,0.55161 1.5457,1.4079s-0.68937,1.3735 -1.5457,1.3735l-1.574,0c-1.0974,0 -1.5112,-0.51716 -1.5112,-1.3735s0.48271,-1.4079 1.5112,-1.4079z"/>
    <g stroke="null" id="svg_11">
     <path stroke="url(#f)" id="svg_12" stroke-width="0.3" fill="url(#h)" d="m56.00345,354.16847c0.63324,-0.53013 4.5183,-0.41981 5.3463,-0.00836c2.2048,1.77 2.9628,8.9779 -0.524,9.8701c-1.0325,0.45305 -2.9559,0.49095 -4.8223,0c-1.4425,-0.26011 -1.6756,-1.1707 -1.851,-1.9484c-0.31445,-2.4664 -0.00843,-6.8458 1.851,-7.9133l0,-0.00004z"/>
     <path stroke="url(#e)" id="svg_13" stroke-width="0.3" fill="url(#q)" d="m55.80345,355.09147c1.2665,-0.384 4.0917,-0.31404 4.9198,0.09742c1.9317,0.93948 1.6467,8.2246 0.09742,8.8408c-1.0325,0.45305 -2.9559,0.49095 -4.8223,0c-1.4425,-0.26011 -1.6756,-1.1707 -1.851,-1.9484c-0.31445,-2.4664 -0.20327,-5.9224 1.6562,-6.9898l-0.00012,-0.00002z"/>
     <path stroke="#adadad" id="svg_14" stroke-width="0.111" fill="url(#i)" d="m63.84345,358.58347l1.574,0c0.85632,0 1.5457,0.55161 1.5457,1.4079s-0.68937,1.3735 -1.5457,1.3735l-1.574,0c-1.0974,0 -1.5112,-0.51716 -1.5112,-1.3735s0.48271,-1.4079 1.5112,-1.4079z"/>
    </g>
    <g stroke="null" id="svg_15" transform="matrix(1,0,0,-1,-0.82664,76.696) ">
     <path stroke="url(#f)" id="svg_16" stroke-width="0.3" fill="url(#h)" d="m55.79122,-273.00047c0.63324,-0.53013 4.5183,-0.41981 5.3463,-0.00836c2.2048,1.77 3.1695,9.0468 -0.31734,9.9389c-1.0325,0.45305 -2.8181,0.14651 -4.6846,-0.34443c-1.4425,-0.26011 -1.6756,-2.1351 -1.851,-2.9128c-0.31445,-2.4664 -0.35286,-5.6059 1.5066,-6.6733l0.00004,-0.00001z"/>
     <path stroke="url(#e)" id="svg_17" stroke-width="0.3" fill="url(#an)" d="m55.67122,-271.38847c1.2665,-0.384 4.0917,-0.31404 4.9198,0.09742c1.9317,0.93948 1.9222,7.6735 0.37297,8.2897c-1.0325,0.45305 -2.9559,0.49095 -4.8223,0c-1.4425,-0.26011 -1.6756,-2.5484 -1.851,-3.3262c-0.31445,-2.4664 -0.47882,-3.9935 1.3806,-5.061l-0.00007,0.00008z"/>
     <path stroke="#adadad" id="svg_18" stroke-width="0.111" fill="url(#am)" d="m63.98122,-269.82547l1.574,0c0.85632,0 1.5457,0.55161 1.5457,1.4079s-0.68937,1.3735 -1.5457,1.3735l-1.574,0c-1.0974,0 -1.5112,-0.51716 -1.5112,-1.3735s0.48271,-1.4079 1.5112,-1.4079z"/>
    </g>
   </g>
   <path stroke="null" id="svg_19" fill-rule="evenodd" fill="url(#t)" d="m798.34611,160.08432c-2.248,-1.55882 -4.30543,-0.91551 -5.91382,0.45649c-16.81131,19.6541 -39.45042,45.51596 -50.43307,58.96311c-5.05335,6.05167 -5.00834,13.33162 -8.18871,20.35059l6.97023,6.07076c-3.22461,-4.15402 -2.76834,-5.57421 -0.1312,-5.35543c22.65868,-34.51963 38.18107,9.26248 22.91817,8.97897c-2.27991,2.93107 -11.30084,6.25529 -9.76094,8.27101c0.49041,2.50515 5.38566,2.79505 0.77107,0.12143l4.4179,2.93378c7.82279,-4.63985 20.3718,-2.04858 24.80859,-7.71153c18.01601,-18.01694 42.26649,-39.9588 51.64032,-51.73356c1.38157,-1.04055 3.18139,-12.94732 1.65969,-14.33702l-38.75874,-27.00902l0.0005,0.00041z"/>
   <path stroke="#28220b" id="svg_20" stroke-width="1.2702" fill-rule="evenodd" fill="url(#ap)" d="m551.76608,512.56261c5.89621,-31.05849 95.59305,-126.38406 118.89577,-151.92471c19.77286,-21.67555 75.20934,-84.72583 88.58266,-100.68771l-6.87171,-8.62007l-239.41651,230.4313l38.80809,30.80529l0.0017,-0.0041z"/>
   <g stroke="null" id="svg_21" fill-rule="evenodd" transform="matrix(1.5216956675669444,0,0,1.4655765303082728,96.7746269744436,-549.8404507283105) ">
    <path stroke="url(#ak)" id="svg_22" stroke-width="1.4932" fill="url(#al)" d="m212.96658,679.05914c-7.0157,-0.01974 -14.36,2.0577 -22.688,6.625c-30.451,20.613 -24.805,41.238 -50.531,61.438c-31.498,29.142 -97.378,48.946 -140.69,90.41c0,73.443 -3.6301,63.718 24.41,96.715c27.748,29.492 41.621,41.1 67.594,61.594c50.975,38.008 96.246,34.108 129.97,-1.0938c42.939,-47.263 22.889,-92.374 61.438,-137.19c12.128,-12.852 29.946,-21.99 43.062,-39.594c5.2882,-7.2611 13.137,-10.362 8.9277,-59.094l-63.271,-45.656c-24.513,-20.41 -40.29,-34.106 -58.219,-34.156l-0.0027,0.0018z"/>
    <path stroke="#28220b" id="svg_23" stroke-width="0.2" filter="url(#n)" fill="#c5a97b" d="m260.01908,758.26054c-1.19803,-1.52823 -2.53984,-2.97144 -4.03049,-4.31945s-3.06842,-2.54498 -4.70903,-3.58374l-68.68032,74.26096c1.19779,1.52783 2.54742,2.97833 4.03776,4.32604s3.06156,2.53857 4.70176,3.57714l68.68032,-74.26096z"/>
    <path stroke="#28220b" id="svg_24" stroke-width="0.31311" fill="url(#aj)" d="m187.32658,795.36914l38.615,34.783l13.636,-15.138c0.54387,-2.4705 1.0403,-4.3068 1.0198,-6.8233l-35.784,-32.234l-17.486,19.412l-0.0008,0.0003z"/>
    <path stroke="#28220b" id="svg_25" stroke-width="0.3135" fill="url(#ai)" d="m266.28658,813.90914c0.25856,-1.2125 0.44027,-2.4399 0.56285,-3.669l-71.399,-65.583c-1.2098,0.24508 -2.4072,0.55592 -3.5868,0.93442l74.423,68.317l-0.00005,0.00058z"/>
   </g>
   <path stroke="null" id="svg_26" opacity="0.63082" filter="url(#bd)" fill-rule="evenodd" d="m432.86634,531.3434c-26.85032,0 -48.64709,20.99292 -48.64709,46.85302c0,7.91382 8.90451,30.05458 12.50651,36.59398c2.62477,-15.02802 33.11514,-23.79803 42.84486,-24.4209c9.49142,-0.60782 40.89709,-0.7314 42.22705,14.07027c2.25135,-5.39391 -0.28532,-20.07693 -0.28532,-26.24261c0,-25.8601 -21.79677,-46.85302 -48.64709,-46.85302l0.00107,-0.00073z"/>
   <path stroke="url(#aq)" id="svg_27" stroke-width="2.6707" fill-rule="evenodd" fill="url(#ar)" d="m548.41402,488.34118l-60.11149,65.134l-36.57566,-31.85576l60.75382,-62.8274c-51.89726,-41.61726 -78.05943,-64.14007 -123.11561,-40.34064c-46.33745,30.20959 -37.76929,60.45196 -76.91599,90.06011c-47.9301,42.71034 -117.07511,34.36722 -182.98463,95.14038c-60.06044,74.62264 -36.63351,130.72687 6.0342,179.08778c42.22395,43.22328 63.34784,60.24711 102.86717,90.28135c77.56853,55.70436 146.44385,49.99643 197.75408,-1.59389c65.3395,-69.26705 34.85199,-135.39744 93.50865,-201.08044c18.45586,-18.8347 45.57515,-32.2417 65.53348,-58.04047c26.30766,-49.47939 5.79182,-73.85814 -46.75773,-123.95864l0.0097,-0.00639zm-80.81424,51.22143c21.04817,18.33159 22.80672,49.51217 3.92624,69.62021s-51.26768,21.54855 -72.31585,3.21688s-22.80672,-49.51217 -3.92633,-69.62021s51.26768,-21.54855 72.31585,-3.21696l0.00009,0.00008z"/>
   <path stroke="#000" id="svg_28" stroke-width="0.69732" fill="none" d="m387.68026,624.72074a-45.78014,-44.45095 0 1 1 91.56029,-97.51497a-45.78014,-44.45095 0 1 1 -91.56029,97.51497z"/>
   <path stroke="#28220b" id="svg_29" stroke-width="0.8878" fill="none" d="m397.44149,614.25934a-35.9575,-34.9133 0 1 1 71.91499,-76.59213a-35.9575,-34.9133 0 1 1 -71.91499,76.59213z"/>
   <path stroke="#28220b" id="svg_30" stroke-width="1.0888" fill-rule="evenodd" fill="#b09280" d="m480.59877,617.08511c23.35462,-24.87367 21.18854,-63.52061 -4.84763,-86.20074s-66.19283,-20.89057 -89.54404,3.98342s-21.16132,63.51979 4.87468,86.19255s66.1656,20.89139 89.51852,-3.98228l-0.00153,0.00705zm-2.86566,-2.49589c-21.95935,23.3881 -59.58996,25.04902 -84.07186,3.72679s-26.53822,-57.54883 -4.5781,-80.93693s59.60272,-25.06213 84.08462,-3.74039s26.5246,57.56276 4.56526,80.95004l0.00009,0.00049z"/>
   <path stroke="#28220b" id="svg_31" stroke-width="1.2702" fill-rule="evenodd" fill="url(#as)" d="m489.44683,557.89175l269.19363,-300.26866l-32.121,-27.97591l-280.33878,289.18219l43.2687,39.05746l-0.00255,0.00492z"/>
   <path stroke="url(#at)" id="svg_32" stroke-width="0.56002" fill-rule="evenodd" fill="url(#u)" d="m836.29917,189.71132c2.61188,-3.09905 1.67484,-3.82209 -0.54113,-5.93376l-38.12066,-33.20204c-3.77344,-2.74703 -5.15289,-4.45933 -9.90727,-1.20386c-41.66754,48.97956 -44.74139,50.42252 -53.60306,62.71104c-6.39366,11.70183 -4.92633,14.8852 -7.60218,17.56791l32.121,27.97591l0.68957,-1.34775l18.12065,-8.26773c21.853,-19.47875 39.22922,-38.86736 58.84298,-58.30104l0.0001,0.00131z"/>
   <path stroke="#fff6d5" id="svg_33" stroke-width="1.7458" fill="none" d="m488.41739,556.00713l268.46196,-298.53153l-29.41383,-25.6185l-279.23277,287.78921l40.17869,36.36082l0.00596,0z"/>
   <g stroke="null" id="svg_34" fill-rule="evenodd" transform="matrix(-1.1497369591579831,-1.0013871618527006,-1.0313091178713238,1.0984039689579783,1363.356986436376,-8.365396071979717) ">
    <path stroke="url(#f)" id="svg_35" stroke-width="0.3" fill="url(#ah)" d="m151.17878,369.87447c0.63324,-0.53013 4.5183,-0.41981 5.3463,-0.00836c2.2048,1.77 2.9628,7.7379 -0.524,8.6301c-1.0325,0.45305 -2.9559,0.49095 -4.8223,0c-1.4425,-0.26011 -1.6756,-1.1707 -1.851,-1.9484c-0.31445,-2.4664 -0.00843,-5.6059 1.851,-6.6733l0,-0.00004z"/>
    <path stroke="url(#e)" id="svg_36" stroke-width="0.3" fill="url(#q)" d="m150.97878,371.96847c1.2665,-0.384 4.0917,-0.31404 4.9198,0.09742c1.9317,0.93948 1.6467,5.8136 0.09742,6.4298c-1.0325,0.45305 -2.9559,0.49095 -4.8223,0c-1.4425,-0.26011 -1.6756,-1.1707 -1.851,-1.9484c-0.31445,-2.4664 -0.20327,-3.5113 1.6562,-4.5788l-0.00012,-0.00002z"/>
    <path stroke="#adadad" id="svg_37" stroke-width="0.111" fill="url(#i)" d="m159.01878,373.04947l1.574,0c0.85632,0 1.5457,0.55161 1.5457,1.4079s-0.68937,1.3735 -1.5457,1.3735l-1.574,0c-1.0974,0 -1.5112,-0.51716 -1.5112,-1.3735s0.48271,-1.4079 1.5112,-1.4079z"/>
    <g stroke="null" id="svg_38">
     <path stroke="url(#f)" id="svg_39" stroke-width="0.3" fill="url(#h)" d="m151.04101,354.16847c0.63324,-0.53013 4.1738,-0.21315 5.0019,0.1983c2.2048,1.77 3.3073,8.7712 -0.17957,9.6634c-1.0325,0.45305 -2.9559,0.49095 -4.8223,0c-1.4425,-0.26011 -1.6756,-1.1707 -1.851,-1.9484c-0.31445,-2.4664 -0.00843,-6.8458 1.851,-7.9133l-0.00003,0z"/>
     <path stroke="url(#e)" id="svg_40" stroke-width="0.3" fill="url(#ag)" d="m150.84101,356.26247c1.2665,-0.384 4.0917,-0.31403 4.9198,0.09742c1.9317,0.93948 1.6467,7.0535 0.09742,7.6697c-1.0325,0.45305 -2.4048,0.49095 -4.2712,0c-1.4425,-0.26011 -1.9511,-0.68847 -2.1265,-1.4662c-0.31445,-2.4664 -0.47882,-5.2335 1.3806,-6.301l-0.00012,0.00008z"/>
     <path stroke="#adadad" id="svg_41" stroke-width="0.111" fill="url(#i)" d="m158.88101,358.58347l1.574,0c0.85632,0 1.5457,0.55161 1.5457,1.4079s-0.68937,1.3735 -1.5457,1.3735l-1.574,0c-1.0974,0 -1.5112,-0.51716 -1.5112,-1.3735s0.48271,-1.4079 1.5112,-1.4079z"/>
    </g>
    <g stroke="null" id="svg_42" transform="matrix(1,0,0,-1,-0.82664,76.696) ">
     <path stroke="url(#f)" id="svg_43" stroke-width="0.3" fill="url(#h)" d="m150.82878,-275.63147c0.63324,-0.53013 4.5183,-0.41981 5.3463,-0.00836c2.8247,1.7011 3.7206,13.055 -0.66177,14.291c-1.0325,0.45305 -2.4737,-1.5757 -4.3401,-2.0666c-1.4425,-0.26011 -1.6756,-2.1351 -1.851,-2.9128c-0.31445,-2.4664 -0.35286,-8.2362 1.5066,-9.3037l-0.00003,0.00046z"/>
     <path stroke="url(#e)" id="svg_44" stroke-width="0.3" fill="url(#af)" d="m150.70878,-274.89547c1.2665,-0.384 4.0917,-0.31404 4.9198,0.09742c1.9317,0.93948 1.9222,12.739 0.37297,13.356c-1.0325,0.45305 -2.9559,0.49095 -4.8223,0c-1.4425,-0.26011 -1.6756,-4.1072 -1.851,-4.8849c-0.31445,-2.4664 -0.47882,-7.5007 1.3806,-8.5681l-0.00007,-0.00042z"/>
     <path stroke="#adadad" id="svg_45" stroke-width="0.111" fill="url(#ae)" d="m159.01878,-269.82547l1.574,0c0.85632,0 1.5457,0.55161 1.5457,1.4079s-0.68937,1.3735 -1.5457,1.3735l-1.574,0c-1.0974,0 -1.5112,-0.51716 -1.5112,-1.3735s0.48271,-1.4079 1.5112,-1.4079z"/>
    </g>
   </g>
   <path stroke="#efe7c4" id="svg_46" stroke-width="2.722" fill-rule="evenodd" fill="url(#v)" d="m794.94302,149.84184c-2.248,-1.55882 -4.30543,-0.91551 -5.91382,0.45648c-16.81131,19.6541 -41.25492,47.54397 -52.23757,60.99112c-5.05335,6.05167 -4.40676,11.01354 -7.58712,18.03251l8.17348,6.3605c-3.22461,-4.15402 -2.76834,-5.57421 -0.13121,-5.35543c2.23669,1.27351 5.06449,-1.65371 7.86397,-4.13231c-1.00621,-3.27006 1.32474,-4.59822 5.28654,-5.0044c3.06483,-1.75458 5.03157,-4.98137 11.33572,-2.5435c1.43883,-0.88667 3.4738,-2.4028 5.03803,-1.04039c1.80475,1.62298 0.33369,3.57602 -0.4391,5.04586c3.15042,5.79675 -0.02173,7.97365 -1.52714,11.08646c-0.02244,3.83716 -1.1608,6.20408 -4.63987,5.56765c-2.27991,2.93107 -4.98443,5.96555 -3.44462,7.98127c0.49041,2.50515 -0.3294,3.66419 -4.94402,0.99057l6.97023,6.07076c7.82279,-4.63985 17.21798,-5.76496 21.65477,-11.42815l55.25016,-54.05082c1.38157,-1.04055 0.4742,-3.38707 -1.04747,-4.77709l-39.66142,-34.25169l0.00046,0.00058z"/>
   <path stroke="#b3b3b3" id="svg_47" stroke-width="0.35556" fill-rule="evenodd" fill="#fff" d="m572.13399,454.3045a2.85124,2.72387 0 1 1 -5.70249,-4.96655a2.85124,2.72387 0 1 1 5.70249,4.96655z"/>
   <path stroke="url(#d)" id="svg_48" stroke-width="0.012" fill-rule="evenodd" fill="url(#g)" d="m789.27202,175.80469a4.75228,4.31303 0 1 1 -9.50418,-8.27766a4.75228,4.31303 0 1 1 9.50418,8.27766z"/>
   <path stroke="url(#au)" id="svg_49" stroke-width="0.09073" fill-rule="evenodd" fill="url(#w)" d="m787.20947,168.4258l0.39829,0.34688c0.51679,0.4501 0.12402,0.83054 -0.33954,1.32423c-0.58459,0.86692 -1.17152,1.53146 -0.68644,2.72442c-0.78326,0.83415 -2.21771,0.44484 -2.73456,-0.00524l-0.39827,-0.34689c-0.51679,-0.45009 -1.07853,-1.73057 -0.33896,-2.67165c1.32993,0.60734 1.94045,-0.31984 2.80509,-0.87921c0.46355,-0.49371 0.77758,-0.94272 1.29437,-0.4926l0.00002,0.00007z"/>
   <path stroke="url(#d)" id="svg_50" stroke-width="0.012" fill-rule="evenodd" fill="url(#g)" d="m817.17743,199.93598a4.75228,4.31303 0 1 1 -9.50418,-8.27766a4.75228,4.31303 0 1 1 9.50418,8.27766z"/>
   <path stroke="url(#av)" id="svg_51" stroke-width="0.09073" fill-rule="evenodd" fill="url(#x)" d="m815.11488,192.56283l0.39827,0.34688c0.51679,0.45009 0.12403,0.83054 -0.33954,1.32423c-0.58458,0.86692 -1.17152,1.53146 -0.68644,2.72442c-0.78327,0.83415 -2.21771,0.44485 -2.73456,-0.00525l-0.39827,-0.34688c-0.51679,-0.45009 -1.07853,-1.73057 -0.33896,-2.67157c1.32993,0.60732 1.94045,-0.31986 2.80509,-0.87921c0.46355,-0.4937 0.77758,-0.94272 1.29437,-0.49259l0.00003,-0.00002z"/>
   <path stroke="url(#d)" id="svg_52" stroke-width="0.012" fill-rule="evenodd" fill="url(#g)" d="m800.82554,216.04536a4.75228,4.31303 0 1 1 -9.50418,-8.27766a4.75228,4.31303 0 1 1 9.50418,8.27766z"/>
   <path stroke="url(#aw)" id="svg_53" stroke-width="0.09073" fill-rule="evenodd" fill="url(#y)" d="m798.7715,208.66402l0.39829,0.34689c0.51677,0.45008 0.12402,0.83046 -0.33954,1.32423c-0.58459,0.86692 -1.17152,1.53146 -0.68644,2.72442c-0.78327,0.83415 -2.21771,0.44484 -2.73456,-0.00525l-0.39827,-0.34689c-0.51679,-0.45008 -1.07853,-1.73057 -0.33896,-2.67165c1.32993,0.60734 1.94045,-0.31984 2.80509,-0.87921c0.46355,-0.49371 0.77757,-0.94272 1.29437,-0.4926l0.00002,0.00007z"/>
   <path stroke="url(#d)" id="svg_54" stroke-width="0.012" fill-rule="evenodd" fill="url(#g)" d="m773.79642,192.58597a4.75228,4.31303 0 1 1 -9.50418,-8.27766a4.75228,4.31303 0 1 1 9.50418,8.27766z"/>
   <path stroke="url(#ax)" id="svg_55" stroke-width="0.09073" fill-rule="evenodd" fill="url(#z)" d="m771.73891,185.21029l0.39829,0.34689c0.51679,0.45009 0.12402,0.83051 -0.33954,1.32422c-0.58459,0.86694 -1.17149,1.53146 -0.68646,2.72442c-0.78325,0.8342 -2.21773,0.44484 -2.73452,-0.00524l-0.39827,-0.34688c-0.51679,-0.4501 -1.07854,-1.73059 -0.33897,-2.67162c1.32991,0.60734 1.94046,-0.31984 2.80511,-0.87917c0.46355,-0.4937 0.77757,-0.9427 1.29435,-0.49261z"/>
   <path stroke="url(#d)" id="svg_56" stroke-width="0.012" fill-rule="evenodd" fill="url(#s)" d="m759.43535,210.33415a4.75228,4.31303 0 1 1 -9.50418,-8.27766a4.75228,4.31303 0 1 1 9.50418,8.27766z"/>
   <path stroke="url(#ay)" id="svg_57" stroke-width="0.09073" fill-rule="evenodd" fill="url(#aa)" d="m757.37642,202.96023l0.39829,0.34688c0.51677,0.4501 0.12402,0.83051 -0.33954,1.32421c-0.58459,0.86695 -1.17151,1.53148 -0.68646,2.72444c-0.78325,0.83421 -2.21773,0.44485 -2.73452,-0.00524l-0.39829,-0.34688c-0.51677,-0.4501 -1.07852,-1.73062 -0.33894,-2.67162c1.32988,0.60732 1.94045,-0.31986 2.80509,-0.8792c0.46356,-0.4937 0.77757,-0.94268 1.29436,-0.49259z"/>
   <path stroke="url(#d)" id="svg_58" stroke-width="0.012" fill-rule="evenodd" fill="url(#g)" d="m784.15035,231.85975a4.75228,4.31303 0 1 1 -9.50418,-8.27766a4.75228,4.31303 0 1 1 9.50418,8.27766z"/>
   <path stroke="url(#az)" id="svg_59" stroke-width="0.09073" fill-rule="evenodd" fill="url(#ab)" d="m782.08732,224.48234l0.39827,0.34689c0.51679,0.45009 0.12403,0.83049 -0.33954,1.3242c-0.58459,0.86695 -1.17149,1.53147 -0.68644,2.72444c-0.78326,0.8342 -2.21775,0.44485 -2.73453,-0.00525l-0.39827,-0.34689c-0.51679,-0.45008 -1.07854,-1.73061 -0.33896,-2.6716c1.32991,0.60732 1.94046,-0.31986 2.8051,-0.87919c0.46355,-0.49371 0.77758,-0.94269 1.29437,-0.4926z"/>
   <path stroke="#b3b3b3" id="svg_60" stroke-width="0.35556" fill-rule="evenodd" fill="#fff" d="m549.73177,434.26225a3.14438,3.00403 0 1 1 -6.28875,-5.47737a3.14438,3.00403 0 1 1 6.28875,5.47737z"/>
   <path stroke="#b3b3b3" id="svg_61" stroke-width="0.35556" fill-rule="evenodd" fill="#fff" d="m599.35335,402.92109a2.9979,2.86404 0 1 1 -5.99581,-5.22196a2.9979,2.86404 0 1 1 5.99581,5.22196z"/>
   <path stroke="#b3b3b3" id="svg_62" stroke-width="0.35556" fill-rule="evenodd" fill="#fff" d="m628.32752,371.49318a2.70477,2.58389 0 1 1 -5.40954,-4.71151a2.70477,2.58389 0 1 1 5.40954,4.71151z"/>
   <path stroke="#b3b3b3" id="svg_63" stroke-width="0.35556" fill-rule="evenodd" fill="#fff" d="m660.55722,336.58683a2.41145,2.30391 0 1 1 -4.8229,-4.20069a2.41145,2.30391 0 1 1 4.8229,4.20069z"/>
   <path stroke="#b3b3b3" id="svg_64" stroke-width="0.35556" fill-rule="evenodd" fill="#fff" d="m527.99389,479.82579a3.07123,2.93394 0 1 1 -6.14247,-5.34985a3.07123,2.93394 0 1 1 6.14247,5.34985z"/>
   <path stroke="#aca793" id="svg_65" stroke-width="0.72586" fill-rule="evenodd" fill="#fff6d5" d="m707.92121,252.94092l28.5255,24.84425a0.78563,0.75665 0 0 1 0.07519,1.44089a0.78563,0.75665 0 0 1 -1.49607,0.07241l-28.5255,-24.84425a0.78563,0.75665 0 0 1 -0.07519,-1.44089a0.78563,0.75665 0 0 1 1.49607,-0.07241"/>
   <path stroke="#aca793" id="svg_66" stroke-width="0.72586" fill-rule="evenodd" fill="#fff6d5" d="m689.02176,273.06972l28.5255,24.84425a0.78563,0.75665 0 0 1 0.07519,1.44089a0.78563,0.75665 0 0 1 -1.49607,0.07241l-28.5255,-24.84425a0.78563,0.75665 0 0 1 -0.07519,-1.44089a0.78563,0.75665 0 0 1 1.49607,-0.07241"/>
   <path stroke="#aca793" id="svg_67" stroke-width="0.74536" fill-rule="evenodd" fill="#fff6d5" d="m669.90725,292.19369l30.42615,26.49962a0.77951,0.75076 0 0 1 0.0746,1.42967a0.77951,0.75076 0 0 1 -1.48441,0.07185l-30.42615,-26.49962a0.77951,0.75076 0 0 1 -0.0746,-1.42967a0.77951,0.75076 0 0 1 1.48441,-0.07185"/>
   <path stroke="#aca793" id="svg_68" stroke-width="0.74854" fill-rule="evenodd" fill="#fff6d5" d="m651.82786,310.83826l30.74292,26.77551a0.7785,0.74979 0 0 1 0.0745,1.42782a0.7785,0.74979 0 0 1 -1.48249,0.07176l-30.74292,-26.77551a0.7785,0.74979 0 0 1 -0.0745,-1.42782a0.7785,0.74979 0 0 1 1.48249,-0.07176"/>
   <path stroke="#aca793" id="svg_69" stroke-width="0.76106" fill-rule="evenodd" fill="#fff6d5" d="m634.72628,328.136l32.01002,27.87909a0.77458,0.74602 0 0 1 0.07413,1.42064a0.77458,0.74602 0 0 1 -1.47504,0.07139l-32.01002,-27.87909a0.77458,0.74602 0 0 1 -0.07413,-1.42064a0.77458,0.74602 0 0 1 1.47504,-0.07139"/>
   <path stroke="#aca793" id="svg_70" stroke-width="0.76874" fill-rule="evenodd" fill="#fff6d5" d="m618.51084,345.10078l32.80196,28.56883a0.77212,0.74365 0 0 1 0.07389,1.41613a0.77212,0.74365 0 0 1 -1.47035,0.07117l-32.80196,-28.56883a0.77212,0.74365 0 0 1 -0.07389,-1.41613a0.77212,0.74365 0 0 1 1.47035,-0.07117"/>
   <path stroke="#aca793" id="svg_71" stroke-width="0.77329" fill-rule="evenodd" fill="#fff6d5" d="m602.43806,361.91363l33.27712,28.98267a0.77073,0.74231 0 0 1 0.07376,1.41358a0.77073,0.74231 0 0 1 -1.46771,0.07104l-33.27712,-28.98267a0.77073,0.74231 0 0 1 -0.07376,-1.41358a0.77073,0.74231 0 0 1 1.46771,-0.07104"/>
   <path stroke="#aca793" id="svg_72" stroke-width="0.78227" fill-rule="evenodd" fill="#fff6d5" d="m587.607,376.78094l34.22744,29.81035a0.76789,0.73958 0 0 1 0.07349,1.40837a0.76789,0.73958 0 0 1 -1.4623,0.07078l-34.22744,-29.81035a0.76789,0.73958 0 0 1 -0.07349,-1.40837a0.76789,0.73958 0 0 1 1.4623,-0.07078"/>
   <path stroke="#aca793" id="svg_73" stroke-width="0.78523" fill-rule="evenodd" fill="#fff6d5" d="m573.82616,391.45819l34.54422,30.08625a0.76695,0.73866 0 0 1 0.0734,1.40664a0.76695,0.73866 0 0 1 -1.4605,0.07069l-34.54422,-30.08625a0.76695,0.73866 0 0 1 -0.0734,-1.40664a0.76695,0.73866 0 0 1 1.4605,-0.07069"/>
   <path stroke="#aca793" id="svg_74" stroke-width="0.79256" fill-rule="evenodd" fill="#fff6d5" d="m559.99432,405.2735l35.33678,30.77653a0.76468,0.73648 0 0 1 0.07318,1.40247a0.76468,0.73648 0 0 1 -1.45617,0.07048l-35.33678,-30.77653a0.76468,0.73648 0 0 1 -0.07318,-1.40247a0.76468,0.73648 0 0 1 1.45617,-0.07048"/>
   <path stroke="#aca793" id="svg_75" stroke-width="0.79256" fill-rule="evenodd" fill="#fff6d5" d="m547.34904,418.74132l35.33678,30.77653a0.76468,0.73648 0 0 1 0.07318,1.40247a0.76468,0.73648 0 0 1 -1.45617,0.07048l-35.33678,-30.77653a0.76468,0.73648 0 0 1 -0.07318,-1.40247a0.76468,0.73648 0 0 1 1.45617,-0.07048"/>
   <path stroke="#aca793" id="svg_76" stroke-width="0.79835" fill-rule="evenodd" fill="#fff6d5" d="m535.69666,431.15165l35.97033,31.32832a0.76285,0.73471 0 0 1 0.07301,1.39911a0.76285,0.73471 0 0 1 -1.45269,0.07031l-35.97033,-31.32832a0.76285,0.73471 0 0 1 -0.07301,-1.39911a0.76285,0.73471 0 0 1 1.45269,-0.07031"/>
   <path stroke="#aca793" id="svg_77" stroke-width="0.8055" fill-rule="evenodd" fill="#fff6d5" d="m523.72478,443.29143l36.76227,32.01806a0.76057,0.73253 0 0 1 0.07279,1.39495a0.76057,0.73253 0 0 1 -1.44836,0.0701l-36.76227,-32.01806a0.76057,0.73253 0 0 1 -0.07279,-1.39495a0.76057,0.73253 0 0 1 1.44836,-0.0701"/>
   <path stroke="#aca793" id="svg_78" stroke-width="0.81535" fill-rule="evenodd" fill="#fff6d5" d="m512.14437,454.39123l37.87098,32.98369a0.75748,0.72955 0 0 1 0.07249,1.38928a0.75748,0.72955 0 0 1 -1.44247,0.06982l-37.87098,-32.98369a0.75748,0.72955 0 0 1 -0.07249,-1.38928a0.75748,0.72955 0 0 1 1.44247,-0.06982"/>
   <path stroke="#aca793" id="svg_79" stroke-width="0.81535" fill-rule="evenodd" fill="#fff6d5" d="m502.76655,464.37905l37.87098,32.98369a0.75748,0.72955 0 0 1 0.07249,1.38928a0.75748,0.72955 0 0 1 -1.44247,0.06982l-37.87098,-32.98369a0.75748,0.72955 0 0 1 -0.07249,-1.38928a0.75748,0.72955 0 0 1 1.44247,-0.06982"/>
   <path stroke="#aca793" id="svg_80" stroke-width="0.81535" fill-rule="evenodd" fill="#fff6d5" d="m492.25202,475.57752l37.87098,32.98369a0.75748,0.72955 0 0 1 0.07249,1.38928a0.75748,0.72955 0 0 1 -1.44247,0.06982l-37.87098,-32.98369a0.75748,0.72955 0 0 1 -0.07249,-1.38928a0.75748,0.72955 0 0 1 1.44247,-0.06982"/>
   <path stroke="#aca793" id="svg_81" stroke-width="0.81535" fill-rule="evenodd" fill="#fff6d5" d="m483.44255,484.96002l37.87098,32.98369a0.75748,0.72955 0 0 1 0.07249,1.38928a0.75748,0.72955 0 0 1 -1.44247,0.06982l-37.87098,-32.98369a0.75748,0.72955 0 0 1 -0.07249,-1.38928a0.75748,0.72955 0 0 1 1.44247,-0.06982"/>
   <path stroke="#aca793" id="svg_82" stroke-width="0.81535" fill-rule="evenodd" fill="#fff6d5" d="m474.9172,494.03991l37.87098,32.98369a0.75748,0.72955 0 0 1 0.07249,1.38928a0.75748,0.72955 0 0 1 -1.44247,0.06982l-37.87098,-32.98369a0.75748,0.72955 0 0 1 -0.07249,-1.38928a0.75748,0.72955 0 0 1 1.44247,-0.06982"/>
   <path stroke="#aca793" id="svg_83" stroke-width="0.81535" fill-rule="evenodd" fill="#fff6d5" d="m466.24988,503.27102l37.87098,32.98369a0.75748,0.72955 0 0 1 0.07249,1.38928a0.75748,0.72955 0 0 1 -1.44247,0.06982l-37.87098,-32.98369a0.75748,0.72955 0 0 1 -0.07249,-1.38928a0.75748,0.72955 0 0 1 1.44247,-0.06982"/>
   <path stroke="#aca793" id="svg_84" stroke-width="0.81535" fill-rule="evenodd" fill="#fff6d5" d="m458.57711,511.44287l37.87098,32.98369a0.75748,0.72955 0 0 1 0.07249,1.38928a0.75748,0.72955 0 0 1 -1.44247,0.06982l-37.87098,-32.98369a0.75748,0.72955 0 0 1 -0.07249,-1.38928a0.75748,0.72955 0 0 1 1.44247,-0.06982"/>
   <g stroke="#000" id="svg_85" stroke-width="0.2" filter="url(#n)" fill="none" transform="matrix(2.407522307995605,2.0968412954595053,-2.1771325133086274,2.3187344657644813,1049.8039626849518,-271.8922147639421) ">
    <path stroke="null" id="svg_86" d="m34.24596,330.48629l-0.4375,12.062l-0.5,29"/>
    <path stroke="null" id="svg_87" d="m36.86996,329.73629l-0.125,13.875l-0.1875,28.125"/>
    <path stroke="null" id="svg_88" d="m39.80796,329.48629l-0.25,14.438l0.3125,27.938"/>
    <path stroke="null" id="svg_89" d="m42.11996,329.48629l0,14.625l0.25,27.75"/>
    <path stroke="null" id="svg_90" d="m44.93296,329.35629l0.25,14.25l0.4375,28.188"/>
    <path stroke="null" id="svg_91" d="m48.05796,330.35629l0.3125,11.938l0.625,29.312"/>
   </g>
   <path stroke="#fff" id="svg_92" stroke-width="0.38153" fill="none" d="m318.70485,677.31911c76.31704,-81.56377 413.75727,-437.2967 415.68002,-439.19771c2.7691,-2.74023 18.97908,-28.37824 37.97093,-51.25503"/>
   <path stroke="#fff" id="svg_93" stroke-width="0.38153" fill="none" d="m326.63407,684.66911c79.41472,-87.87232 411.35809,-440.63985 412.73634,-442.16393c1.50026,-1.6542 24.06331,-37.19742 47.85948,-71.93583"/>
   <path stroke="#fff" id="svg_94" stroke-width="0.38153" fill="none" d="m332.9298,689.184l412.43857,-442.19671c22.98283,-16.60102 45.576,-35.5193 68.27382,-53.81073"/>
   <path stroke="#fff" id="svg_95" stroke-width="0.38153" fill="none" d="m340.2805,696.31277l409.63101,-445.18751c15.86865,-14.19854 25.97841,-24.12965 47.60595,-42.5948"/>
   <path stroke="#fff" id="svg_96" stroke-width="0.38153" fill="none" d="m349.24766,703.11378l431.9043,-478.78286"/>
   <path stroke="#fff" id="svg_97" stroke-width="0.38153" fill="none" d="m310.90324,670.55087l446.82688,-465.55776"/>
   <path stroke="#f4eed7" id="svg_98" stroke-width="0.06446" fill="none" d="m813.80347,192.41889c-0.11674,-0.44818 0.30841,-0.83009 0.74234,-0.87478c0.67679,-0.06967 1.21206,0.5129 1.23856,1.13233c0.03646,0.85291 -0.75738,1.50809 -1.60909,1.51095c-1.09373,0.00369 -1.92121,-0.94622 -1.89909,-1.96712c0.02721,-1.25375 1.2076,-2.19349 2.47579,-2.14716c1.50974,0.05521 2.63431,1.37992 2.55962,2.8019c-0.03057,0.58173 -0.25179,1.14698 -0.62009,1.60829"/>
   <path stroke="#cfdae5" id="svg_99" stroke-width="0.04618" fill-rule="evenodd" fill="url(#k)" d="m816.60141,194.34264a1.54362,1.4746 0 1 1 -3.08711,-2.68857a1.54362,1.4746 0 1 1 3.08711,2.68857z"/>
   <path stroke="#f4eed7" id="svg_100" stroke-width="0.24809" fill="none" d="m798.34611,208.10682c0.25303,-0.35337 0.79045,-0.30201 1.08899,-0.03786c0.46564,0.41199 0.37202,1.12897 -0.0604,1.5267c-0.59543,0.54769 -1.55692,0.41625 -2.08142,-0.15422c-0.67361,-0.73259 -0.4932,-1.87126 0.25983,-2.48261c0.92479,-0.75083 2.32959,-0.53424 3.07393,0.34629c0.88617,1.04817 0.61647,2.61642 -0.45927,3.43852c-1.25157,0.9564 -3.10397,0.65344 -4.06636,-0.53837c-1.10022,-1.36241 1.02136,-2.44468 1.62923,-2.75498c1.20019,-0.61259 2.15612,0.35945 2.7463,0.54281c2.07581,0.64498 -0.0751,2.36388 -0.70972,3.01285c-1.41271,1.4446 -3.94028,-1.55342 -5.16284,-3.52563"/>
   <path stroke="#cfdae5" id="svg_101" stroke-width="0.04618" fill-rule="evenodd" fill="url(#k)" d="m800.25803,210.45038a1.54362,1.4746 0 1 1 -3.08711,-2.68857a1.54362,1.4746 0 1 1 3.08711,2.68857z"/>
   <path stroke="#fff6d5" id="svg_102" stroke-width="0.49599" fill="none" d="m786.75856,168.50856c-1.35316,-0.15592 -0.6095,0.51405 0.01024,1.46066c0.43644,0.66665 2.11426,0.67356 2.79377,-0.05897c1.99388,-2.79415 -1.15654,-4.03824 -3.70512,-2.7431c-1.93032,0.57356 -1.89468,4.13428 1.82287,6.1123c1.78824,0.95149 8.23039,-1.66281 5.85095,-4.16541"/>
   <path stroke="url(#l)" id="svg_103" stroke-width="0.04618" fill-rule="evenodd" fill="url(#j)" d="m788.696,170.20889a1.54362,1.4746 0 1 1 -3.08711,-2.68857a1.54362,1.4746 0 1 1 3.08711,2.68857z"/>
   <path stroke="#fff6d5" id="svg_104" stroke-width="0.45784" fill="none" d="m771.34252,184.77035c-1.18972,0.22234 -1.33623,1.69419 -0.80612,2.62503c0.48154,0.84554 2.63374,0.76902 3.23728,0.25929c0.56578,-0.47782 0.64164,-1.86618 0.22808,-2.45303c-0.45516,-0.64595 -2.35682,-1.74401 -4.04594,-0.41718c-1.29624,1.01818 0.13819,3.00154 1.41424,3.7163c2.44844,0.75524 5.34287,-0.65157 3.70487,-4.268c-2.32627,-4.12371 -5.59061,-0.96156 -6.74664,0.50116c-0.78296,0.99065 -1.8985,3.43754 0.39158,4.72982"/>
   <path stroke="url(#l)" id="svg_105" stroke-width="0.04618" fill-rule="evenodd" fill="url(#j)" d="m773.22892,186.99346a1.54362,1.4746 0 1 1 -3.08711,-2.68857a1.54362,1.4746 0 1 1 3.08711,2.68857z"/>
   <path stroke="#f4eed7" id="svg_106" stroke-width="0.35428" fill="none" d="m756.79428,203.68207c-0.0256,0.26358 -0.8483,2.46492 -0.59856,2.45385c0.38954,-0.01726 1.73796,-2.4128 1.69696,-2.7658c-0.05646,-0.48602 -0.97158,-1.60635 -1.45406,-1.53662c-0.61968,0.08961 -1.6277,0.51148 -1.52297,1.08767c0.12871,0.70768 2.37196,3.4137 3.08584,3.28112c0.8499,-0.15782 1.38914,-1.65019 1.21831,-2.4491c-0.19872,-0.92953 -1.30994,-3.07742 -2.25489,-2.88076c-1.08031,0.22479 -1.74341,2.17083 -1.5057,3.19221c0.26791,1.15142 1.1551,1.88912 2.33104,1.6279c1.3107,-0.29117 2.10107,-1.55973 1.79616,-2.80349c-0.33668,-1.37339 -1.83402,-2.19714 -3.24077,-1.87102c-0.44823,0.10391 -2.85673,1.86807 -1.71252,3.87018"/>
   <path stroke="url(#l)" id="svg_107" stroke-width="0.04618" fill-rule="evenodd" fill="url(#j)" d="m758.86784,204.74327a1.54362,1.4746 0 1 1 -3.08711,-2.68857a1.54362,1.4746 0 1 1 3.08711,2.68857z"/>
   <path stroke="#f4eed7" id="svg_108" stroke-width="0.34514" fill="none" d="m781.3136,225.24045c-0.46505,-0.58195 0.44222,-0.72329 1.04526,-1.05326c0.94053,-0.51461 1.43398,0.04014 1.88004,0.92674c0.61429,1.22074 0.09669,2.52506 -1.19738,2.90714c-0.8854,0.2614 -2.8586,-0.12587 -3.49805,-1.62724c-0.78532,-1.84381 0.26922,-3.76973 2.14804,-4.47621c2.2366,-0.84095 4.74715,0.40329 5.57385,2.52121c0.32566,0.83431 2.40633,6.1854 -5.88881,6.47489"/>
   <path stroke="#cfdae5" id="svg_109" stroke-width="0.04618" fill-rule="evenodd" fill="url(#k)" d="m783.57434,226.2656a1.54362,1.4746 0 1 1 -3.08711,-2.68857a1.54362,1.4746 0 1 1 3.08711,2.68857z"/>
   <path stroke="#fff4c7" id="svg_110" stroke-width="2.6274" stroke-opacity="0.63701" fill="none" d="m545.1981,491.12714l-59.13735,64.07862l-35.98352,-31.33954l59.76948,-61.8097c-51.05584,-40.9429 -76.79433,-63.10108 -121.11629,-39.68676c-45.58706,29.72041 -37.15674,59.47278 -75.66961,88.59339c-47.15334,42.01877 -115.17788,33.81003 -180.01542,93.59172c-59.08716,73.41321 -36.04052,128.61282 5.93637,176.18711c41.53908,42.5227 62.32095,59.27121 101.19965,88.81463c76.31194,54.80139 144.07019,49.18605 194.55516,-1.56808c64.28028,-68.14529 34.28707,-133.20965 91.99427,-197.81924c18.15638,-18.52988 44.83668,-31.71892 64.47171,-57.0998c25.88142,-48.67802 5.69789,-72.661 -46.00054,-121.95111l-0.00391,0.00877zm-79.5049,50.39138c20.70701,18.03497 22.43663,48.70998 3.8626,68.4919s-50.43648,21.19948 -71.14348,3.16476s-22.43663,-48.70998 -3.86269,-68.4919s50.43648,-21.19948 71.14348,-3.16485l0.00009,0.00008z"/>
   <path stroke="url(#ba)" id="svg_111" stroke-width="1.6801" fill-rule="evenodd" fill="url(#bb)" d="m403.39096,721.35359c-39.06928,-33.78791 -111.11118,-97.5658 -117.21123,-101.35962c-4.52578,0.6157 -20.73593,18.62903 -20.16336,20.13672l14.90472,12.50075c4.22665,6.67376 6.43415,14.69837 11.32636,18.95925l54.10672,47.60461c6.43611,4.93893 15.61512,4.97768 22.93093,9.35835l15.04425,13.103c7.80739,-5.50021 14.56101,-11.91815 19.05991,-20.29978l0.0017,-0.00328z"/>
   <path stroke="#28220b" id="svg_112" stroke-width="0.47562" filter="url(#n)" fill-rule="evenodd" fill="url(#ad)" d="m306.36407,644.53507c1.66538,-1.71716 3.39866,-0.99023 5.95144,0.62121l73.45979,62.29932c-10.21758,-2.08183 -29.62434,13.28812 -19.81988,19.23518l-4.03407,-1.59267c-4.46963,-1.20149 -8.49567,-2.56778 -11.93567,-4.15228c-4.27019,-0.77022 -44.88593,-38.61334 -58.83262,-51.24051c-2.04416,-2.19752 -3.87336,-3.94515 -6.45211,-10.6618c8.11145,-0.7485 13.30318,-5.7377 21.66417,-14.50732l-0.00105,-0.00112z"/>
   <path stroke="#666" id="svg_113" stroke-width="1.6801" fill-rule="evenodd" fill="url(#ac)" d="m469.83647,714.70827c48.1011,-49.94891 66.46252,-118.37034 28.16234,-143.37839c-0.45367,0.67104 -0.87502,1.35447 -1.32032,2.03219c0.82121,15.54235 -4.45831,31.31988 -16.08645,43.70427c-14.04969,14.96386 -34.16116,21.53626 -53.63199,19.4894c-4.99864,-0.04046 -7.04943,-0.25272 -12.50043,1.27965c-19.55846,20.75619 -45.03236,40.18577 -11.16046,72.88961c32.29626,26.36333 42.93775,21.33305 56.52717,13.66757c3.46308,-3.14756 6.80373,-6.35771 10.01022,-9.68775l-0.00009,0.00344z"/>
   <path stroke="url(#bc)" id="svg_114" stroke-width="2.6707" fill-rule="evenodd" fill="#fff" d="m367.00333,699.16428c-15.80059,-13.34063 -34.8171,-30.04817 -53.87276,-45.14559c-3.89315,-2.08635 -4.66301,-0.30754 -4.49524,1.40994c0.99719,1.81579 3.43237,2.86388 4.27957,2.39609c18.79872,15.05317 34.78648,28.79449 52.13973,43.41502c1.63876,1.16838 3.02893,-0.83448 1.94836,-2.07513l0.00034,-0.00033z"/>
   <path stroke="null" id="svg_115" fill-rule="evenodd" fill="url(#svg_6)" d="m306.78702,671.79886a-3.20089,-3.10798 0 1 1 6.4021,-6.81852a-3.20089,-3.10798 0 1 1 -6.4021,6.81852z"/>
   <path stroke="null" id="svg_116" fill-rule="evenodd" fill="url(#svg_5)" d="m315.12461,678.70639a-3.20089,-3.10798 0 1 1 6.4021,-6.81852a-3.20089,-3.10798 0 1 1 -6.4021,6.81852z"/>
   <path stroke="null" id="svg_117" fill-rule="evenodd" fill="url(#svg_4)" d="m323.37712,685.74502a-3.20089,-3.10798 0 1 1 6.4021,-6.81852a-3.20089,-3.10798 0 1 1 -6.4021,6.81852z"/>
   <path stroke="null" id="svg_118" fill-rule="evenodd" fill="url(#svg_3)" d="m331.54456,692.89018a-3.20089,-3.10798 0 1 1 6.4021,-6.81852a-3.20089,-3.10798 0 1 1 -6.4021,6.81852z"/>
   <path stroke="null" id="svg_119" fill-rule="evenodd" fill="url(#svg_2)" d="m348.04959,706.95926a-3.20089,-3.10798 0 1 1 6.4021,-6.81852a-3.20089,-3.10798 0 1 1 -6.4021,6.81852z"/>
   <path stroke="null" id="svg_120" fill-rule="evenodd" fill="url(#svg_1)" d="m339.79708,699.92882a-3.20089,-3.10798 0 1 1 6.4021,-6.81852a-3.20089,-3.10798 0 1 1 -6.4021,6.81852z"/>
  </g>
 </g>
</svg>