<svg width="800" height="600" xmlns="http://www.w3.org/2000/svg">
 <!-- Created with Method Draw - http://github.com/duopixel/Method-Draw/ -->

 <g>
  <title>background</title>
  <rect fill="none" id="canvas_background" height="602" width="802" y="-1" x="-1"/>
  <g display="none" overflow="visible" y="0" x="0" height="100%" width="100%" id="canvasGrid">
   <rect fill="url(#gridpattern)" stroke-width="0" y="0" x="0" height="100%" width="100%"/>
  </g>
 </g>
 <g>
  <title>Layer 1</title>
  <!-- Created with Method Draw - http://github.com/duopixel/Method-Draw/ -->

  <defs>
   <filter height="1.5249" width="1.1" y="-0.26246" x="-0.05" id="svg_1039">
    <feGaussianBlur stdDeviation="1.63716"/>
   </filter>
   <linearGradient y2="1.0012" y1="-0.00123" x2="1.0053" x1="-0.00526" id="svg_1037">
    <stop offset="0" stop-color="#ffc789"/>
    <stop offset="1" stop-color="#ffe7cd"/>
   </linearGradient>
   <linearGradient y2="0.5" y1="0.5" x2="1.0039" x1="-0.00386" id="svg_1038">
    <stop offset="0" stop-color="#5f411c"/>
    <stop offset="1" stop-color="#454545"/>
   </linearGradient>
  </defs>
  <g stroke="null" transform="rotate(25 405.29364013671886,300.0002136230468) " id="svg_1084">
   <g stroke="null" transform="matrix(1.742008679796845,0,0,1.6093316979434653,-6400.658255646559,-4738.466629546003) " id="svg_1041" fill="#bf5f00">
    <rect stroke="#000" id="svg_1042" stroke-width="0.8" filter="url(#svg_1039)" ry="0.76011" rx="0.76011" height="13.954" width="77.746" y="760.90069" x="1111.00987" transform="matrix(5.1841,1.6704,-1.5006,4.6473,-899.95,-2352.7) "/>
    <rect stroke="url(#svg_1038)" id="svg_1043" stroke-width="4.44" ry="4.2187" rx="4.2187" height="77.444" width="431.5" y="2982.94026" x="3729.38473" transform="rotate(17.87700080871582 3579.6748046875023,2955.733642578124) "/>
    <g stroke="#573006" id="svg_1044">
     <path stroke="null" id="svg_1045" stroke-width="11.1" stroke-dasharray="2.77502757,2.77502757" d="m3723.17473,3036.49826l394.24,127.41"/>
     <g stroke="null" id="svg_1046" stroke-width="2.775" stroke-miterlimit="0">
      <path stroke="null" id="svg_1047" d="m3726.04473,3032.13526l-6.3149,19.71"/>
      <path stroke="null" id="svg_1048" d="m3768.40473,3045.37826l-6.3149,19.71"/>
      <path stroke="null" id="svg_1049" d="m3810.70473,3058.89426l-6.3149,19.71"/>
      <path stroke="null" id="svg_1050" d="m3852.85473,3072.67426l-6.315,19.71"/>
      <path stroke="null" id="svg_1051" d="m3895.17473,3086.05426l-6.3149,19.71"/>
      <path stroke="null" id="svg_1052" d="m3937.35473,3100.06426l-6.3149,19.71"/>
      <path stroke="null" id="svg_1053" d="m3979.66473,3113.73426l-6.315,19.71"/>
      <path stroke="null" id="svg_1054" d="m4021.82473,3127.48426l-6.3149,19.71"/>
      <path stroke="null" id="svg_1055" d="m4064.14473,3140.96426l-6.3149,19.71"/>
      <path stroke="null" id="svg_1056" d="m4106.45473,3154.58426l-6.3149,19.71"/>
     </g>
    </g>
    <path stroke="null" id="svg_1057" d="m3717.41473,3050.24826l-0.4943,1.5474c-0.29289,0.91699 -0.83812,1.7104 -1.6357,2.3803c-0.79756,0.6699 -1.6892,0.84742 -2.675,0.53256c-0.56856,-0.18159 -1.0089,-0.45993 -1.3211,-0.83503c-0.3122,-0.37508 -0.53641,-0.95449 -0.67261,-1.7382c-0.13622,-0.78371 -0.08423,-1.5515 0.15594,-2.3035l0.4943,-1.5474c0.29143,-0.91241 0.83513,-1.7051 1.6311,-2.378c0.79599,-0.67292 1.6869,-0.85195 2.6726,-0.5371c0.56393,0.18013 1.0024,0.45659 1.3153,0.82938c0.31291,0.37281 0.53978,0.9518 0.68059,1.737c0.14076,0.78519 0.09035,1.556 -0.15128,2.3126l0.00016,-0.00001zm-1.4167,-0.4525c0.24454,-0.76567 0.24516,-1.5032 0.00183,-2.2125c-0.14197,-0.39397 -0.43303,-0.66126 -0.87315,-0.80185c-0.42641,-0.13618 -0.83052,-0.07325 -1.2123,0.18879c-0.57648,0.39694 -0.98918,0.98512 -1.2381,1.7646l-0.4943,1.5474c-0.24602,0.77027 -0.24435,1.5085 0.00505,2.2147c0.13738,0.39252 0.42842,0.6598 0.87317,0.80185c0.4218,0.13474 0.82361,0.07106 1.2054,-0.19099c0.57648,-0.39694 0.98918,-0.98512 1.2381,-1.7646l0.4943,-1.5474z"/>
    <path stroke="null" id="svg_1058" d="m3753.95473,3066.24426l3.088,0.9863c0.21356,-0.08336 0.39601,-0.10088 0.54732,-0.05256c0.21548,0.06884 0.36359,0.19445 0.44428,0.37687c0.08067,0.18239 0.0661,0.44553 -0.04373,0.78941l-0.2153,0.674l-6.4235,-2.0517l0.4767,-1.4924c3.2093,-1.284 5.1735,-2.1421 5.8926,-2.5743c0.36404,-0.22225 0.59,-0.47092 0.67787,-0.74602c0.10982,-0.34386 0.05668,-0.69557 -0.15939,-1.0551c-0.21612,-0.35955 -0.57405,-0.61914 -1.0738,-0.77877c-0.50435,-0.1611 -0.97073,-0.14837 -1.3992,0.03817c-0.22403,0.10022 -0.43782,0.2871 -0.64139,0.5606c-0.1257,0.17207 -0.25789,0.28142 -0.39658,0.32808c-0.13869,0.04665 -0.29057,0.04362 -0.45563,-0.00911c-0.19257,-0.0615 -0.33681,-0.18337 -0.43271,-0.36557c-0.09592,-0.18222 -0.11458,-0.36503 -0.05599,-0.54843c0.08786,-0.27509 0.32492,-0.57831 0.7112,-0.90969c0.38625,-0.33136 0.86307,-0.54286 1.4304,-0.63448c0.56737,-0.09162 1.1376,-0.0459 1.7107,0.13714c0.88948,0.28412 1.5324,0.78633 1.9289,1.5066c0.39645,0.72034 0.4724,1.4633 0.22784,2.229c-0.1245,0.38972 -0.3212,0.7248 -0.59013,1.0052c-0.26894,0.28044 -0.80662,0.61523 -1.613,1.0044c-0.63393,0.30784 -1.8458,0.8353 -3.6356,1.5824l0.00014,-0.00004z"/>
    <path stroke="null" id="svg_1059" d="m3802.30473,3073.31426l-1.7617,5.5157c0.298,0.0952 0.49721,0.23082 0.59761,0.40691c0.1004,0.17606 0.11764,0.36726 0.05176,0.57358c-0.06592,0.20633 -0.19232,0.3529 -0.3792,0.43974c-0.1869,0.08684 -0.42706,0.08338 -0.72049,-0.01034l-0.1801,0.564c0.298,0.09519 0.49684,0.23196 0.59651,0.41032c0.09965,0.17836 0.11653,0.3707 0.05066,0.57703c-0.06592,0.20631 -0.19196,0.35175 -0.3781,0.4363c-0.18617,0.08454 -0.4489,0.07263 -0.78818,-0.03574l-1.8913,-0.6041c-0.33929,-0.10838 -0.56029,-0.25096 -0.66298,-0.42775c-0.10268,-0.17682 -0.12033,-0.37067 -0.05298,-0.58157c0.0659,-0.20632 0.19194,-0.35175 0.3781,-0.4363c0.18616,-0.08453 0.44888,-0.07262 0.78818,0.03575l0.5502,0.1757l0.1801,-0.564l-3.8307,-1.2235l0.3756,-1.176l5.2132,-4.6709l1.8638,0.5953l0.00001,-0.00013zm-3.1716,5.0654l1.1071,-3.4662l-3.1497,2.8138l2.0426,0.6524z"/>
    <path stroke="null" id="svg_1060" d="m3838.59473,3089.41426c0.43005,-0.1759 0.81958,-0.28014 1.1685,-0.31268c0.34894,-0.03255 0.6976,0.00682 1.0461,0.11812c0.73816,0.23578 1.2909,0.7357 1.6582,1.4998c0.36734,0.76408 0.4097,1.5886 0.12704,2.4734c-0.26215,0.82071 -0.73202,1.402 -1.4096,1.7439c-0.67764,0.34187 -1.4589,0.37151 -2.3438,0.08887c-0.73816,-0.23578 -1.2908,-0.60176 -1.6577,-1.0979c-0.367,-0.49617 -0.55777,-1.1407 -0.5723,-1.9336c-0.01456,-0.79286 0.11874,-1.6294 0.39993,-2.5098c0.33682,-1.0545 0.8576,-1.8545 1.5624,-2.3999c0.70474,-0.54544 1.4442,-0.90675 2.2182,-1.0839c0.77405,-0.1772 1.5233,-0.15008 2.2477,0.08128c0.57312,0.18308 0.982,0.43745 1.2266,0.76315c0.15799,0.21721 0.19965,0.44273 0.12497,0.67656c-0.06589,0.20633 -0.18997,0.35745 -0.37216,0.45335c-0.18222,0.0959 -0.36963,0.1131 -0.5622,0.05159c-0.11002,-0.03514 -0.25067,-0.14069 -0.42181,-0.31664c-0.1033,-0.10371 -0.21225,-0.17389 -0.32684,-0.21051c-0.44937,-0.14351 -0.95535,-0.16492 -1.518,-0.06424c-0.56274,0.10071 -1.1048,0.35831 -1.6262,0.77281c-0.36014,0.28918 -0.6831,0.6913 -0.96887,1.2063l-0.00016,0.00004zm-0.4901,2.246c-0.02902,0.59706 0.04919,1.0364 0.23465,1.3179c0.18542,0.28154 0.5097,0.49628 0.97278,0.6442c0.46304,0.1479 0.85837,0.14026 1.1858,-0.02292c0.32748,-0.16319 0.55789,-0.4534 0.69116,-0.87064c0.15228,-0.47682 0.13568,-0.91919 -0.04983,-1.3271c-0.18549,-0.40788 -0.45706,-0.66894 -0.8147,-0.78319c-0.28427,-0.09077 -0.63269,-0.04797 -1.0453,0.12846c-0.41257,0.17645 -0.80411,0.48085 -1.1746,0.91324l0.00004,0.00005z"/>
    <path stroke="null" id="svg_1061" d="m3884.81473,3104.52426c0.27286,0.39539 0.44312,0.79965 0.51074,1.2128c0.06757,0.41318 0.03329,0.83296 -0.1029,1.2594c-0.15085,0.47226 -0.40536,0.8697 -0.76358,1.1924c-0.35818,0.32265 -0.8215,0.5195 -1.3899,0.59058c-0.56839,0.07109 -1.1552,0.00998 -1.7604,-0.18333c-0.60522,-0.1933 -1.1142,-0.48219 -1.527,-0.86668c-0.41278,-0.38448 -0.67123,-0.81313 -0.77539,-1.286c-0.1041,-0.47286 -0.08148,-0.94312 0.06787,-1.4108c0.1362,-0.42639 0.35159,-0.78833 0.64621,-1.0858c0.29462,-0.29748 0.66766,-0.52823 1.1192,-0.69222c-0.22266,-0.39448 -0.36148,-0.78241 -0.4165,-1.1638c-0.05502,-0.38136 -0.02395,-0.75545 0.0932,-1.1222c0.22992,-0.71983 0.70309,-1.2521 1.4195,-1.5967c0.7164,-0.34465 1.5056,-0.37932 2.3676,-0.104c0.86197,0.27531 1.4849,0.76105 1.8689,1.4572c0.38397,0.69614 0.461,1.4041 0.23111,2.124c-0.11865,0.37137 -0.30975,0.69685 -0.57336,0.97644c-0.26367,0.27959 -0.60208,0.51256 -1.0153,0.6989l0,-0.00019zm0.1356,-2.1091c0.1113,-0.34843 0.0697,-0.6889 -0.12472,-1.0213c-0.19449,-0.33244 -0.52322,-0.5726 -0.98633,-0.72052c-0.46765,-0.14937 -0.87708,-0.14497 -1.2282,0.01318c-0.35117,0.15816 -0.58237,0.41147 -0.69366,0.75992c-0.11276,0.35304 -0.07193,0.69577 0.12253,1.0282s0.52551,0.57333 0.99316,0.7227c0.4631,0.14793 0.87021,0.14279 1.2214,-0.01536c0.3511,-0.15816 0.5831,-0.41376 0.69586,-0.7668l-0.00004,-0.00002zm-1.1596,4.1998c0.11862,-0.37137 0.06659,-0.7581 -0.15616,-1.1602c-0.22272,-0.40208 -0.57019,-0.67856 -1.0424,-0.82939c-0.47226,-0.15085 -0.91568,-0.127 -1.3302,0.07153c-0.41458,0.19853 -0.68265,0.48808 -0.8042,0.86864c-0.09372,0.29343 -0.03781,0.59297 0.16772,0.89862c0.2055,0.30565 0.58798,0.54782 1.1473,0.72647c0.56393,0.18013 1.0171,0.20488 1.3595,0.07422c0.34235,-0.13065 0.56186,-0.34728 0.65851,-0.64989l-0.00007,0z"/>
    <path stroke="null" id="svg_1062" d="m3920.53473,3110.95426l-2.4647,7.7164l1.4236,0.4547c0.33929,0.10838 0.56027,0.25096 0.66293,0.42776c0.10269,0.17679 0.12036,0.37065 0.05301,0.58156c-0.06592,0.20631 -0.19196,0.35175 -0.37811,0.43628c-0.18616,0.08455 -0.44885,0.07263 -0.78815,-0.03574l-4.2571,-1.3597c-0.33929,-0.10838 -0.56027,-0.25096 -0.66296,-0.42776c-0.10269,-0.17679 -0.12036,-0.37065 -0.05298,-0.58156c0.06589,-0.20633 0.19192,-0.35176 0.37808,-0.4363c0.18616,-0.08455 0.44888,-0.07263 0.78818,0.03574l1.4236,0.4547l1.8781,-5.8802l-1.364,-0.0719c-0.2193,-0.0094 -0.3794,-0.03021 -0.48029,-0.06245c-0.17877,-0.05709 -0.31085,-0.1776 -0.39609,-0.36146c-0.08527,-0.18385 -0.09497,-0.37897 -0.02908,-0.5853c0.06006,-0.18797 0.15543,-0.32045 0.2861,-0.39746c0.13071,-0.07698 0.36285,-0.10768 0.69641,-0.09211l3.2833,0.1847l0.00015,0.0001z"/>
    <path stroke="null" id="svg_1063" d="m3928.50473,3117.67426l-0.4943,1.5474c-0.29288,0.91699 -0.8381,1.7104 -1.6356,2.3803c-0.79758,0.66989 -1.6892,0.8474 -2.675,0.53255c-0.56854,-0.1816 -1.0089,-0.45992 -1.3211,-0.83502c-0.3122,-0.37509 -0.53641,-0.95448 -0.67258,-1.7382c-0.13623,-0.78372 -0.08426,-1.5516 0.15594,-2.3035l0.4943,-1.5474c0.29138,-0.91242 0.83511,-1.7051 1.6311,-2.378c0.79596,-0.67291 1.6869,-0.85194 2.6726,-0.53709c0.56393,0.18013 1.0024,0.45659 1.3153,0.82938c0.31293,0.37282 0.5398,0.9518 0.6806,1.737c0.14078,0.7852 0.09036,1.5561 -0.15128,2.3126l0.00002,-0.00002zm-1.4167,-0.4525c0.24457,-0.76567 0.24518,-1.5032 0.00183,-2.2125c-0.14194,-0.39397 -0.43301,-0.66124 -0.87317,-0.80185c-0.42639,-0.13618 -0.8305,-0.07324 -1.2123,0.1888c-0.57648,0.39694 -0.98923,0.98511 -1.2382,1.7646l-0.4943,1.5474c-0.24603,0.77025 -0.24435,1.5085 0.00507,2.2147c0.13736,0.39252 0.42841,0.6598 0.87314,0.80185c0.42181,0.13474 0.82364,0.07108 1.2054,-0.19098c0.57648,-0.39693 0.98917,-0.98511 1.2381,-1.7646l0.4943,-1.5474l0.00013,-0.00002z"/>
    <path stroke="null" id="svg_1064" d="m3962.31473,3124.29426l-2.4647,7.7164l1.4236,0.4547c0.33929,0.10838 0.56027,0.25096 0.66293,0.42776c0.10269,0.17679 0.12036,0.37065 0.05298,0.58156c-0.06589,0.20633 -0.19192,0.35175 -0.37808,0.4363c-0.18616,0.08453 -0.44885,0.07262 -0.78815,-0.03575l-4.2571,-1.3597c-0.33932,-0.10838 -0.56027,-0.25096 -0.66296,-0.42776c-0.10269,-0.17679 -0.12036,-0.37065 -0.05298,-0.58156c0.06589,-0.20633 0.19192,-0.35175 0.37808,-0.4363c0.18616,-0.08454 0.44885,-0.07262 0.78818,0.03575l1.4236,0.4547l1.8782,-5.8802l-1.364,-0.0719c-0.2193,-0.0094 -0.3794,-0.03021 -0.48029,-0.06244c-0.17877,-0.0571 -0.31085,-0.17761 -0.39609,-0.36146c-0.0853,-0.18387 -0.095,-0.37897 -0.02908,-0.58531c0.06003,-0.18796 0.1554,-0.32045 0.2861,-0.39746c0.13071,-0.07698 0.36282,-0.10767 0.69638,-0.0921l3.2834,0.1847l-0.00002,0.00007z"/>
    <path stroke="null" id="svg_1065" d="m3965.56473,3133.83426l3.088,0.9863c0.21356,-0.08336 0.396,-0.10089 0.5473,-0.05255c0.21548,0.06882 0.36356,0.19444 0.44428,0.37685c0.08069,0.1824 0.0661,0.44554 -0.0437,0.78941l-0.2153,0.674l-6.4235,-2.0517l0.4767,-1.4924c3.2093,-1.284 5.1735,-2.1421 5.8926,-2.5743c0.36401,-0.22226 0.58997,-0.47093 0.67786,-0.74603c0.10983,-0.34386 0.0567,-0.69557 -0.15939,-1.0551c-0.21612,-0.35956 -0.57407,-0.61914 -1.0738,-0.77878c-0.50433,-0.16109 -0.97073,-0.14836 -1.3991,0.03816c-0.22403,0.10025 -0.43784,0.28711 -0.64139,0.56062c-0.1257,0.17207 -0.2579,0.28143 -0.39658,0.32806c-0.1387,0.04666 -0.29056,0.04363 -0.45563,-0.00911c-0.19257,-0.06149 -0.33679,-0.18335 -0.43271,-0.36557c-0.09592,-0.1822 -0.11456,-0.365 -0.056,-0.54842c0.08786,-0.27508 0.32495,-0.57832 0.71121,-0.9097c0.38626,-0.33136 0.86307,-0.54285 1.4304,-0.63448c0.56738,-0.09161 1.1376,-0.0459 1.7107,0.13715c0.8895,0.28412 1.5325,0.78633 1.9289,1.5066c0.39645,0.72034 0.47238,1.4633 0.22781,2.229c-0.12448,0.38972 -0.32117,0.72479 -0.59009,1.0052c-0.26895,0.28043 -0.80661,0.61522 -1.613,1.0044c-0.63391,0.30786 -1.8458,0.83531 -3.6356,1.5824l0.00003,-0.00001z"/>
    <path stroke="null" id="svg_1066" d="m4005.05473,3137.94426l-2.4647,7.7164l1.4236,0.4547c0.33926,0.10837 0.56024,0.25095 0.66293,0.42775c0.10269,0.17679 0.12033,0.37065 0.05298,0.58156c-0.06589,0.20633 -0.19192,0.35175 -0.37808,0.4363c-0.18616,0.08453 -0.44888,0.07263 -0.78815,-0.03574l-4.2571,-1.3598c-0.33932,-0.10837 -0.5603,-0.25096 -0.66299,-0.42775c-0.10266,-0.1768 -0.12033,-0.37067 -0.05298,-0.58157c0.06592,-0.20631 0.19196,-0.35175 0.37811,-0.43628c0.18616,-0.08455 0.44885,-0.07263 0.78818,0.03574l1.4236,0.4547l1.8782,-5.8802l-1.364,-0.0719c-0.2193,-0.00942 -0.3794,-0.03023 -0.48026,-0.06245c-0.17883,-0.05712 -0.31085,-0.1776 -0.39612,-0.36148c-0.08527,-0.18385 -0.09497,-0.37895 -0.02905,-0.5853c0.06003,-0.18796 0.1554,-0.32045 0.2861,-0.39745c0.13068,-0.077 0.36282,-0.1077 0.69638,-0.09211l3.2833,0.1847l0.00005,0.00018z"/>
    <path stroke="null" id="svg_1067" d="m4013.50473,3140.77426l-1.7617,5.5157c0.298,0.0952 0.49722,0.23082 0.59763,0.40689c0.1004,0.17607 0.11762,0.36726 0.05173,0.57358c-0.06589,0.20633 -0.19229,0.3529 -0.37918,0.43973c-0.18689,0.08684 -0.42706,0.0834 -0.72052,-0.01033l-0.1801,0.564c0.29804,0.09518 0.49686,0.23196 0.59656,0.41032c0.09964,0.17838 0.11652,0.3707 0.05059,0.57703c-0.06588,0.20631 -0.19192,0.35176 -0.37808,0.4363c-0.18616,0.08453 -0.44888,0.07262 -0.78818,-0.03575l-1.8913,-0.6041c-0.33929,-0.10838 -0.56027,-0.25096 -0.66296,-0.42775c-0.10269,-0.1768 -0.12036,-0.37067 -0.05297,-0.58157c0.06588,-0.20633 0.19192,-0.35175 0.37811,-0.4363c0.18616,-0.08453 0.44885,-0.07263 0.78815,0.03574l0.5502,0.1757l0.1801,-0.564l-3.8307,-1.2235l0.3756,-1.176l5.2132,-4.6709l1.8638,0.5953l0.00002,-0.00009zm-3.1716,5.0654l1.1071,-3.4662l-3.1497,2.8138l2.0426,0.6524z"/>
    <path stroke="null" id="svg_1068" d="m4046.83473,3151.29426l-2.4647,7.7164l1.4236,0.4547c0.33926,0.10837 0.56027,0.25096 0.66293,0.42775c0.10269,0.1768 0.12036,0.37065 0.05301,0.58157c-0.06592,0.20631 -0.19196,0.35175 -0.37811,0.4363c-0.18616,0.08453 -0.44888,0.07262 -0.78815,-0.03574l-4.2571,-1.3598c-0.33929,-0.10837 -0.56027,-0.25096 -0.66296,-0.42776s-0.12036,-0.37065 -0.05298,-0.58156c0.06589,-0.20631 0.19192,-0.35176 0.37808,-0.4363c0.18616,-0.08453 0.44888,-0.07261 0.78818,0.03575l1.4236,0.4547l1.8782,-5.8802l-1.364,-0.0719c-0.21933,-0.00941 -0.37942,-0.03024 -0.48032,-0.06246c-0.1788,-0.0571 -0.31082,-0.17758 -0.39612,-0.36148c-0.08527,-0.18385 -0.09497,-0.37894 -0.02905,-0.58528c0.06003,-0.18796 0.1554,-0.32046 0.2861,-0.39746c0.13071,-0.07699 0.36285,-0.10768 0.69638,-0.09209l3.2834,0.1847l0.00001,0.00016z"/>
    <path stroke="null" id="svg_1069" d="m4049.93473,3156.92426c0.43008,-0.17589 0.81958,-0.28012 1.1685,-0.31267c0.34891,-0.03255 0.69763,0.00684 1.046,0.11812c0.73819,0.23579 1.291,0.7357 1.6583,1.4998c0.36728,0.76407 0.40961,1.5886 0.12698,2.4734c-0.26215,0.82071 -0.732,1.402 -1.4096,1.7439c-0.67764,0.34187 -1.4589,0.37151 -2.3438,0.08885c-0.73816,-0.23576 -1.2908,-0.60176 -1.6577,-1.0979c-0.36704,-0.49618 -0.55777,-1.1407 -0.57233,-1.9336c-0.01453,-0.79286 0.11877,-1.6295 0.39993,-2.5098c0.33682,-1.0545 0.8576,-1.8545 1.5624,-2.4c0.70474,-0.54542 1.4442,-0.90674 2.2182,-1.0839c0.77405,-0.17718 1.5233,-0.15007 2.2477,0.0813c0.57309,0.18306 0.982,0.43745 1.2266,0.76315c0.15799,0.21722 0.19965,0.44273 0.12494,0.67654c-0.06589,0.20634 -0.18994,0.35745 -0.37219,0.45335c-0.18222,0.0959 -0.36957,0.11311 -0.5621,0.05161c-0.11008,-0.03515 -0.2507,-0.1407 -0.42184,-0.31664c-0.10333,-0.10373 -0.21228,-0.1739 -0.32687,-0.21051c-0.44937,-0.14352 -0.95535,-0.16493 -1.518,-0.06424c-0.56271,0.10071 -1.1048,0.35831 -1.6262,0.7728c-0.36017,0.28918 -0.68314,0.6913 -0.9689,1.2063l-0.00002,0.00014zm-0.49,2.246c-0.02902,0.59706 0.04919,1.0364 0.23462,1.3179c0.18546,0.28154 0.5097,0.49628 0.97278,0.64418c0.46307,0.1479 0.85837,0.14027 1.1859,-0.02292c0.32752,-0.16318 0.55783,-0.4534 0.69116,-0.8706c0.15225,-0.47685 0.13565,-0.9192 -0.0498,-1.3271c-0.18555,-0.4079 -0.45712,-0.66896 -0.81476,-0.78319c-0.28424,-0.09079 -0.63266,-0.04797 -1.0452,0.12846c-0.41257,0.17644 -0.80414,0.48085 -1.1746,0.91324l-0.0001,0.00003z"/>
    <path stroke="null" id="svg_1070" d="m4089.43473,3164.90426l-2.4647,7.7164l1.4236,0.4547c0.33929,0.10838 0.5603,0.25098 0.66299,0.42778c0.10269,0.17679 0.12033,0.37065 0.05298,0.58156c-0.06592,0.20631 -0.19192,0.35175 -0.37811,0.4363c-0.18616,0.08453 -0.44888,0.07262 -0.78821,-0.03575l-4.2571,-1.3598c-0.33923,-0.10835 -0.56024,-0.25095 -0.66293,-0.42775s-0.12033,-0.37067 -0.05298,-0.58156c0.06589,-0.20633 0.19192,-0.35176 0.37808,-0.4363c0.18616,-0.08454 0.44891,-0.07263 0.78818,0.03573l1.4236,0.4547l1.8782,-5.8802l-1.364,-0.0719c-0.21933,-0.00941 -0.3794,-0.03022 -0.48026,-0.06245c-0.1788,-0.0571 -0.31088,-0.1776 -0.39612,-0.36146c-0.0853,-0.18388 -0.09494,-0.37895 -0.02905,-0.58528c0.06006,-0.18797 0.15543,-0.32046 0.28613,-0.39746c0.13068,-0.077 0.36276,-0.10771 0.69635,-0.09212l3.2834,0.1847l-0.00005,0.00016z"/>
    <path stroke="null" id="svg_1071" d="m4096.21473,3172.04426c0.27289,0.39539 0.44312,0.79965 0.51074,1.2128c0.06757,0.41318 0.03333,0.83298 -0.10284,1.2594c-0.15088,0.47226 -0.40546,0.86969 -0.76361,1.1923c-0.35822,0.32266 -0.82153,0.5195 -1.3899,0.59061c-0.56842,0.07109 -1.1552,0.00998 -1.7604,-0.18333c-0.60522,-0.19331 -1.1142,-0.48221 -1.527,-0.86668c-0.41278,-0.38449 -0.67126,-0.81314 -0.77536,-1.286c-0.10413,-0.47282 -0.08148,-0.94308 0.0679,-1.4108c0.1362,-0.42639 0.35156,-0.78834 0.64615,-1.0858c0.29462,-0.29747 0.66766,-0.52821 1.1192,-0.69222c-0.2226,-0.39447 -0.36145,-0.78241 -0.4165,-1.1638c-0.05499,-0.38136 -0.02392,-0.75545 0.0932,-1.1222c0.22992,-0.71982 0.70312,-1.2521 1.4196,-1.5967c0.71637,-0.34464 1.5056,-0.3793 2.3675,-0.104c0.862,0.27533 1.485,0.76105 1.869,1.4572c0.38397,0.69614 0.461,1.4041 0.23108,2.1239c-0.11865,0.3714 -0.30975,0.69688 -0.57342,0.97646c-0.26355,0.2796 -0.60199,0.51257 -1.0152,0.6989l-0.00014,-0.00004zm0.1356,-2.1091c0.11133,-0.34845 0.06976,-0.68889 -0.1247,-1.0213c-0.19446,-0.33243 -0.52325,-0.5726 -0.98633,-0.7205c-0.46765,-0.14937 -0.87708,-0.14499 -1.2282,0.01315c-0.3512,0.15817 -0.5824,0.41148 -0.69366,0.75993c-0.11279,0.35304 -0.07196,0.69579 0.1225,1.0282c0.19446,0.33243 0.52551,0.57333 0.99322,0.72272c0.46301,0.1479 0.87018,0.14279 1.2213,-0.01538c0.35114,-0.15814 0.58313,-0.41374 0.69586,-0.7668l0.00001,-0.00002zm-1.1595,4.1998c0.11865,-0.3714 0.06653,-0.75813 -0.15613,-1.1602c-0.22278,-0.4021 -0.57025,-0.67856 -1.0425,-0.82941c-0.47223,-0.15083 -0.91571,-0.127 -1.3302,0.07155c-0.41461,0.19853 -0.68268,0.48808 -0.8042,0.86862c-0.09375,0.29344 -0.0379,0.59297 0.16766,0.89864c0.2055,0.30565 0.58795,0.54779 1.1473,0.72646c0.56396,0.18014 1.0171,0.20488 1.3595,0.07423c0.34235,-0.13065 0.56189,-0.34728 0.65851,-0.64987l0.00006,-0.00002z"/>
    <g stroke="null" id="svg_1072" stroke-miterlimit="0">
     <path stroke="url(#svg_1037)" id="svg_1073" stroke-width="2.775" d="m3693.11473,3099.15426l405.47,130.55"/>
     <g stroke="null" id="svg_1074" stroke-width="0.5">
      <path stroke="null" id="svg_1075" opacity="0.439" d="m4102.60473,3223.38426c-0.11536,1.2181 -0.55456,2.3227 -1.1382,3.3835c-0.55621,0.91302 -1.3705,1.6093 -2.3334,2.0588c-0.74005,0.38394 -1.5047,0.42419 -2.317,0.38434c-0.60052,0.00031 -1.1954,-0.06714 -1.7881,-0.15628l-4.1203,-2.0027c0.58081,0.11346 1.1652,0.2139 1.7594,0.21652c0.77002,0.00177 1.5264,0.1918 2.2424,-0.21637c0.92694,-0.2937 1.6876,-0.95935 2.2213,-1.764c0.565,-1.0106 0.98505,-2.0584 1.0875,-3.2255l4.3864,1.3216l0,0.00009z"/>
      <path stroke="null" id="svg_1076" opacity="0.439" d="m3720.68473,3032.76426c-1.0694,0.42819 -2.1084,0.93533 -3.1318,1.4637c-0.72876,0.41225 -1.1863,1.0732 -1.4056,1.8686c-0.10381,0.56084 -0.07375,0.27702 -0.08911,0.85159l-4.3993,-1.2781c0.03978,-0.65022 -0.00145,-0.33309 0.11948,-0.95178c0.25558,-0.89794 0.73918,-1.6894 1.5304,-2.2149c1.0174,-0.56914 2.0901,-1.045 3.1543,-1.5179l4.2218,1.7788l-0.00017,-0.00001z"/>
      <path stroke="null" id="svg_1077" opacity="0.439" d="m4118.30473,3160.00426c0.97931,0.63144 1.8361,1.3974 2.6303,2.2463c0.729,0.64461 1.2334,1.3886 1.5419,2.3014c0.21985,0.86363 0.28436,1.7488 0.39136,2.6301c0.0838,0.86966 -0.10748,1.7214 -0.32208,2.5576c-0.14374,0.71956 -0.5542,1.3006 -0.99438,1.8669l-4.3117,-1.5482c0.40765,-0.51552 0.81305,-1.0186 0.93402,-1.6869c0.19934,-0.78314 0.37665,-1.5797 0.27386,-2.3929c-0.10919,-0.84854 -0.15491,-1.7092 -0.41748,-2.5299c-0.33295,-0.84146 -0.93726,-1.4909 -1.5841,-2.1143c-0.8031,-0.80104 -1.6564,-1.5514 -2.6579,-2.0989l4.5162,0.7687l0,0.0001z"/>
      <path stroke="null" id="svg_1078" opacity="0.439" d="m4120.55473,3160.51426c0.80188,1.0894 1.4466,2.3162 1.7443,3.6407c0.10162,0.63712 -0.00647,1.242 -0.15277,1.8584l-4.375,-1.3589c0.12561,-0.55014 0.21338,-1.0866 0.09357,-1.6508c-0.34186,-1.2588 -0.99109,-2.421 -1.7897,-3.4484l4.4797,0.959l-0.0001,0z"/>
      <path stroke="null" id="svg_1079" opacity="0.439" d="m4122.60473,3160.11426c0.96045,0.76233 1.6522,1.7306 1.9802,2.909c0.13043,0.96857 0.00848,1.9609 -0.09607,2.9295c-0.09363,0.62683 -0.04071,0.315 -0.15851,0.93559l-4.3809,-1.3398c0.1106,-0.59712 0.06128,-0.29707 0.14783,-0.90007c0.09247,-0.90828 0.22705,-1.847 0.04639,-2.7488c-0.39136,-1.0993 -1.1475,-1.9397 -2.0303,-2.6886l4.4913,0.9032l0.00006,-0.00002z"/>
      <path stroke="null" id="svg_1080" opacity="0.439" d="m4104.12473,3229.15426c-0.11639,1.1067 -0.56653,2.0554 -1.2631,2.9043c-0.64368,0.771 -1.4633,1.0651 -2.4398,1.0712c-0.80512,-0.09952 -1.615,-0.11706 -2.4178,-0.23523c-0.13794,-0.02658 -0.27588,-0.0531 -0.41388,-0.07965l-4.1122,-2.0192c0.13525,0.03201 0.27051,0.06402 0.40576,0.09604c0.797,0.15863 1.5966,0.17004 2.395,0.28296c0.87909,0.1066 1.6536,0.02496 2.2764,-0.67868c0.66638,-0.77539 1.0894,-1.6252 1.1832,-2.6634l4.3864,1.3216l0.00002,0.00006z"/>
      <g stroke="null" id="svg_1081" transform="matrix(5.2869,1.6887,-1.6887,5.2869,-847.59,-2622.3) ">
       <path stroke="null" id="svg_1082" opacity="0.439" d="m1093.5011,731.77284c0.02682,0.20444 0.06354,0.41061 0.05356,0.61734c-0.02542,0.12463 -0.03369,0.20264 0.01932,0.3169c0.07171,0.10251 0.14328,0.17688 0.26111,0.22366c0.14246,0.07764 0.30109,0.10336 0.46033,0.11896c0.1683,0.01227 0.33722,0.01096 0.50589,0.01083c-1.3201,0.03928 -0.77094,0.02887 -0.47208,-0.0462l0.8185,0.1066c-0.40384,0.12686 -0.63586,0.12009 -1.1617,0.0686c-0.16928,-0.0007 -0.33911,-0.00064 -0.50745,-0.02078c-0.16226,-0.02435 -0.31952,-0.0657 -0.46384,-0.14664c-0.11517,-0.06851 -0.20129,-0.16299 -0.26547,-0.28098c-0.04917,-0.11847 -0.0495,-0.23032 -0.02002,-0.35516c0.01098,-0.20062 -0.02842,-0.40109 -0.05347,-0.59952l0.8253,-0.0136l0.00002,-0.00001z"/>
       <path stroke="null" id="svg_1083" opacity="0.439" d="m1093.1611,731.53284l0,1.2456c-0.00378,0.09494 -0.00745,0.1774 0.07929,0.22864l-0.8227,0.0667c-0.06952,-0.09039 -0.09205,-0.18005 -0.08197,-0.29535l0,-1.2456l0.82541,0l-0.00003,0.00001z"/>
      </g>
     </g>
    </g>
   </g>
  </g>
  <g stroke="null" id="svg_491">
   <path stroke="null" id="svg_357" fill="#915E36" d="m606.86282,87.91328l-0.67747,1.88926c0.08347,0.02276 0.15727,0.05691 0.24074,0.07967c-77.44928,77.12966 -156.79789,152.31316 -234.6343,229.22658c-1.76626,-1.2633 -3.6535,-2.37865 -5.31088,-3.76714c79.4212,-76.37851 157.65683,-153.90651 237.7071,-229.93221l-0.66537,1.87788l1.33074,0l0,1.2633l2.00942,-0.63734z"/>
   <path stroke="null" id="svg_358" fill="#915E36" d="m365.78046,314.71569l0,-2.51522c9.15794,-10.86894 26.4818,-27.5081 38.73674,-40.2094c28.80455,-29.84122 61.84329,-58.31672 92.16004,-89.205c30.41475,-31.01348 64.85561,-58.28257 92.14795,-89.21638c5.00964,-1.2064 9.46038,-13.28173 13.35583,-7.53428l2.00821,-0.62596c-80.05028,76.0257 -158.28591,153.5537 -237.7071,229.93221c-0.24195,-0.20486 -0.47181,-0.40972 -0.70166,-0.62596z"/>
   <path stroke="null" id="svg_359" fill="#915E36" d="m371.793,319.10879c-1.99612,1.88926 -4.00433,3.76714 -6.01254,5.6564c-0.41132,-0.03414 -0.82264,-0.05691 -1.19767,-0.12519c-1.47592,-1.59335 -3.1091,-2.82251 -4.1374,-3.64195c1.41543,-1.98031 2.62519,-4.09719 3.66559,-6.28236l0.33873,2.50384l1.33074,0l0,-2.50384c0.22986,0.21624 0.45971,0.4211 0.70166,0.62596c1.65738,1.38849 3.54462,2.50384 5.31088,3.76714z"/>
   <path stroke="null" id="svg_360" fill="#915E36" d="m377.14017,324.13924c77.19523,-76.94756 156.30189,-153.09845 233.36404,-230.17121l-0.30244,0.86496c2.29856,-0.06829 3.42364,0.96739 4.00554,2.50384l1.99491,-0.62596c-79.09456,76.19641 -154.45094,156.41035 -234.39234,231.82147c-1.47592,-1.39987 -2.97603,-2.79975 -4.6697,-4.3931z"/>
   <path stroke="null" id="svg_361" d="m614.2061,97.33683c-0.58069,-1.53645 -1.70577,-2.57213 -4.00554,-2.50384l0.30244,-0.86496l0.36414,-1.0243l-2.00821,0.62596c0.06049,-2.0486 -0.89523,-3.14118 -2.43284,-3.68747c-0.08347,-0.02276 -0.15727,-0.05691 -0.24074,-0.07967l0.67747,-1.88926l-2.00821,0.63734l0,-1.2633l3.87125,-1.37711l1.47592,-3.64195l1.33195,0l-0.66537,1.87788l1.99491,0.62596c0.59279,1.12673 1.17347,2.25346 2.67358,2.51522l-0.66537,1.88926l2.00821,-0.62596c0.57948,1.11535 1.17347,2.24208 2.66149,2.50384l-0.66658,1.88926l2.00821,0.62596l2.67358,0l-0.67747,1.88926l2.00821,-0.62596c0.25405,1.01292 1.34163,1.25192 1.33074,2.50384c14.27525,5.56535 20.65072,-8.55858 29.38524,-17.58379c11.73474,-12.12086 23.11865,-20.57701 33.38957,-32.67512c-3.6039,-2.0486 -6.35128,-4.90525 -8.00745,-8.7862c7.59613,-15.55795 -6.67912,-26.7228 -22.70854,-20.11039c-2.81876,-1.11535 -3.94384,-3.82405 -8.00866,-3.76714c-5.64961,7.18147 -15.79956,14.86371 -25.3797,23.87753c-12.26825,11.54043 -30.70388,22.3297 -18.703,41.46132l2.67358,0l-0.66658,1.87788l2.00821,0.63734l-3.88335,1.37711l-1.46382,3.64195l-1.33074,0l0.66537,-1.87788l-2.00821,0.62596c-3.89545,-5.74745 -8.34618,6.32789 -13.35583,7.53428c-27.29234,30.93381 -61.7332,58.20291 -92.14795,89.21638c-30.31676,30.88828 -63.35549,59.36378 -92.16004,89.205c-12.25494,12.7013 -29.5788,29.34046 -38.73674,40.2094l0,5.01906l-1.33074,0l-0.33873,-2.50384l-2.33485,1.25192c-2.0687,-1.82097 -6.2303,-1.67302 -8.00866,-3.76714l1.99612,-1.46816l-0.66537,-2.29898l2.67358,0c15.27936,-16.62778 33.98235,-30.02332 48.07614,-47.75506c-16.56171,-23.1719 -67.95261,-39.01438 -98.82586,-16.33187c-9.56926,7.03352 -17.36016,17.89108 -22.70733,27.64467c-5.75849,10.50475 -6.91987,23.1719 -13.35583,35.17896c-10.48868,19.59824 -24.87281,19.15438 -52.09256,21.36231c-33.7162,2.73146 -70.62619,18.20975 -90.8172,37.69418c-19.22199,18.55118 -31.15029,54.68615 -20.03253,89.205c4.39145,13.63341 15.44872,31.55863 25.38091,45.23984c10.23463,14.10117 22.28391,27.97359 33.38957,37.69304c28.0545,24.54902 70.0576,52.33026 125.53751,46.4929c19.45305,-2.0486 36.18413,-12.08672 46.74539,-21.36345c22.06615,-19.35924 37.33341,-54.03629 40.06748,-87.95194c1.65738,-20.42906 1.68158,-41.33613 18.703,-51.52334c9.70233,-5.79298 22.70733,-8.58134 33.38957,-13.81665c18.81188,-9.2073 38.14274,-21.78455 40.06748,-49.00812c2.02031,-28.6906 -14.14218,-50.03014 -30.71719,-69.10599c-15.49711,18.51704 -34.11543,34.08637 -49.41898,52.77412l-2.44373,-0.62596l-1.5606,1.88926c-2.77037,-0.33005 -0.36293,-5.53121 -2.67358,-6.2835l0.66537,-1.88926l-1.99612,0.62596c0.55649,-2.62903 -0.91942,-3.32328 -1.34284,-5.01906l2.00821,-0.63734l1.99612,-0.62596c40.65906,-36.2943 77.73962,-77.32314 116.19811,-116.84967c28.59889,-29.38598 57.57281,-58.21429 86.81287,-87.95308c9.14705,-9.28697 20.45716,-17.54964 26.71165,-28.89659l0.66537,-1.88926l-1.99491,0.62937zm74.78779,-61.56033c0.85893,6.30513 8.49377,6.24822 9.3515,12.56473c-5.32297,7.27252 -17.97714,13.89631 -18.703,21.36231l-1.99612,1.45678l0.66658,2.31036l-1.33195,0l-3.33896,-3.14118l-0.67868,4.3931c-1.94651,1.09258 -4.23418,1.87788 -4.00433,5.03044l-4.83907,-0.31867l2.16548,4.08581l-4.33097,-2.03722l0.32785,4.55244l-2.67479,0c-1.5364,1.85512 -1.5364,3.16394 0,5.01906l-2.52841,1.13811l-0.13186,2.64041c-1.13718,-0.239 -1.27147,0.48939 -1.34284,1.25192l-1.99612,-0.62596l-2.007,0.62596c-6.37668,5.82712 -13.07879,11.89324 -25.38091,8.79758c-62.303,57.81595 -119.19834,120.71925 -178.96082,180.92522c16.83996,23.85477 35.84539,49.46223 30.71598,81.67072c-4.48824,28.19097 -29.10699,45.18294 -54.75405,55.28935c-8.86759,3.49286 -20.32408,4.29067 -26.71165,10.0495c-12.60577,11.35719 -8.92808,29.98918 -10.69434,47.74254c-6.38757,64.22464 -47.64062,116.81553 -117.52886,111.83175c-44.41054,-3.17532 -82.59079,-26.79109 -109.5202,-51.51196c-23.50577,-21.60018 -57.82686,-64.1427 -61.43196,-103.03189c-1.13718,-12.29158 -1.31865,-24.54902 1.33074,-35.17896c11.9525,-47.82449 69.5374,-77.3459 122.87603,-81.67072c20.28779,-1.65026 30.52242,0.22762 40.06748,-12.56473c5.44395,-7.29528 6.2061,-17.04888 9.3515,-25.12945c10.34351,-26.56347 33.83718,-59.95559 78.80422,-57.80457c28.79245,1.37711 38.60366,12.00705 61.43196,30.15989c62.36469,-58.61263 123.61398,-118.24955 184.30799,-178.42138c-3.23008,-9.46907 -0.82385,-20.73635 5.34717,-25.12945l1.99491,-1.46816l-0.66537,-2.29898c1.13718,0.22762 1.25816,-0.48939 1.34284,-1.2633l3.33896,0.63734l0.66537,-3.14118c1.64528,-0.55767 2.74738,-1.61612 2.67358,-3.77852l3.34017,0.63734l0.66537,-3.14118l0,-2.51522l3.33896,0.62596l0.66537,-3.14118l2.67358,0c0.25405,-1.01292 1.34284,-1.25192 1.33195,-2.51522l4.43984,0.05691l-1.76626,-3.82405l0,-2.51522l2.44373,0.62596l1.5606,-1.87788c9.00067,-4.51829 14.60189,-12.23467 21.37658,-18.84709c6.60533,9.35526 25.78134,1.63888 34.72031,10.0495c4.59349,4.32482 6.56541,11.82495 4.0007,21.36231l0.00121,0z"/>
   <path stroke="null" id="svg_362" fill="#915E36" d="m377.14017,324.13924c-1.77836,-1.6844 -3.56881,-3.35742 -5.34717,-5.03044c77.8364,-76.91342 157.18502,-152.09692 234.6343,-229.22658c1.53761,0.54629 2.49333,1.63888 2.43284,3.68747l2.00821,-0.62596l-0.36414,1.0243c-77.06215,77.07276 -156.16881,153.22365 -233.36404,230.17121z"/>
   <path stroke="null" id="svg_363" fill="#F8B662" d="m628.98945,81.05049c-6.89567,1.76407 -12.48479,6.58965 -14.11798,8.1261l0.66537,-1.88926c-1.50011,-0.26177 -2.0808,-1.38849 -2.67358,-2.51522l-1.99491,-0.62596c2.70867,-2.66318 5.72099,-5.08735 8.10423,-8.03505c-0.07259,-1.22916 -0.73675,-2.7087 -1.76626,-3.90371c1.20977,-0.13657 3.67769,-1.2064 4.79068,-3.14118l1.5606,1.88926c2.34695,-1.13811 4.12531,-2.81113 5.33507,-5.03044l-1.99491,-1.45678c2.29735,-1.18363 4.56082,-3.44847 5.78148,-5.45154l1.5606,1.88926c2.28767,-1.61612 5.25039,-2.60627 5.33507,-6.28236l-1.99612,-1.46816c2.29856,-1.18363 4.56203,-3.43709 5.78269,-5.44016l1.5606,1.87788c3.23008,-1.98031 5.90366,-4.49553 8.00866,-7.53428l-2.26226,-0.87634c3.27847,-2.83389 3.31476,-9.91293 -2.10499,-10.35679c-3.25306,0.62596 -6.03553,2.72008 -7.42797,5.57674l-1.5606,-1.88926c-2.34695,1.13811 -4.1374,2.81113 -5.33507,5.03044l1.99612,1.46816c-2.12919,1.13811 -4.52453,3.27775 -5.78269,5.44016l-1.5606,-1.87788c-3.23008,1.98031 -5.90366,4.49553 -8.00866,7.53428l2.26226,0.87634c-0.81054,0.91049 -1.70577,1.74131 -2.66149,2.51522l-0.94241,-2.13965c-3.55671,1.2633 -4.40476,5.07597 -6.67912,7.54566l2.00821,1.46816c-5.97625,2.00307 -2.23807,8.41063 2.00821,9.83326c-2.54172,3.47123 -6.19401,5.91817 -8.68734,9.42354l0.66658,-1.87788l-2.67358,0c-12.00089,-19.13162 6.43475,-29.92089 18.703,-41.46132c9.58135,-9.01383 19.7313,-16.69606 25.3797,-23.87753c4.06482,-0.05691 5.1899,2.65179 8.00866,3.76714c16.02941,-6.61241 30.30466,4.55244 22.70854,20.11039c1.65617,3.88095 4.40355,6.73761 8.00745,8.7862c-10.26971,12.0981 -21.65362,20.55425 -33.38957,32.67512c-8.73452,9.02521 -15.10999,23.14914 -29.38524,17.58379c0.0121,-1.25192 -1.07669,-1.49092 -1.33074,-2.50384l-2.00821,0.62596l0.67747,-1.88926l-2.67358,0l-2.00821,-0.62596c3.19499,-2.99323 6.18191,-6.22546 10.15115,-8.29682c2.95062,2.44693 8.57725,4.3362 10.33141,-0.50077l1.5606,1.88926c1.92353,-0.70563 3.25306,-1.95755 4.00433,-3.76714l-2.00821,-2.20793c3.1212,-0.87634 5.64961,-3.30052 7.12674,-5.96369l1.5606,1.88926c2.67358,-2.09412 6.2061,-3.38018 6.67791,-7.54566l-0.66537,-1.87788c2.32275,-1.84374 3.75028,-4.38172 4.45194,-7.12456c3.96804,-0.69425 7.42918,-3.32328 8.15383,-7.19285c0.21776,-1.95755 -0.66537,-4.13134 -2.34695,-5.32635c-5.32176,-1.93479 -9.79911,3.43709 -10.70644,7.90986c-3.58091,0.72839 -6.69001,2.79975 -8.63774,5.70193l-0.93273,-2.13965c-3.67769,2.40141 -6.79889,5.33773 -9.35029,8.79758l2.27436,0.87634c-1.86304,2.13965 -3.50832,4.46139 -4.50154,7.07904l-1.77836,-2.93632c-1.92353,0.70563 -3.26637,1.96893 -4.00433,3.77852l1.99491,1.45678c-1.92232,0.56905 -2.87804,1.99169 -3.24097,3.60781z"/>
   <path stroke="null" id="svg_364" fill="#F8B662" d="m614.87147,89.17659c1.63319,-1.53645 7.22231,-6.36203 14.11798,-8.1261c-0.25405,1.17225 -0.20566,2.44693 0.03629,3.59643c-3.96804,2.07136 -6.95616,5.30359 -10.15115,8.29682l0.66658,-1.88926c-1.48801,-0.26177 -2.08201,-1.38849 -2.66149,-2.50384l-2.00821,0.62596z"/>
   <path stroke="null" id="svg_365" d="m657.61254,66.56235l0.66537,1.87788c-0.47181,4.16548 -4.00433,5.45154 -6.67791,7.54566l-1.5606,-1.88926l-2.44494,0.62596c-0.16937,-3.19809 -1.94651,-4.87111 -5.34717,-5.01906l-1.72997,-1.63888l-2.27436,-0.87634c2.5514,-3.45985 5.6726,-6.39617 9.35029,-8.79758l0.93273,2.13965l1.74085,1.6275c0.47302,1.65026 2.34695,1.98031 2.66149,3.76714c2.16548,0.35281 2.29856,-1.18363 4.01643,-1.25192l0.66779,1.88926z"/>
   <path stroke="null" id="svg_366" d="m650.66848,41.18252l2.26226,0.87634c-2.10499,3.03875 -4.77858,5.55397 -8.00866,7.53428l-1.5606,-1.87788l-2.44373,0.62596c-0.17058,-3.19809 -1.94772,-4.87111 -5.34717,-5.03044l0.66537,-2.29898l-1.99612,-1.46816c1.19767,-2.21931 2.98812,-3.89233 5.33507,-5.03044l1.5606,1.88926l2.45583,-0.62596c1.16138,1.83236 1.99491,3.98338 5.33507,3.76714l1.74206,1.63888z"/>
   <path stroke="null" id="svg_367" d="m642.91387,80.06033l2.00821,2.20793c-0.75006,1.80959 -2.0808,3.06151 -4.00433,3.76714l-1.5606,-1.88926l-2.44494,0.62596c-0.16937,-3.19809 -1.94651,-4.87111 -5.34717,-5.01906l0.66537,-2.31036l-1.99491,-1.45678c0.73675,-1.80959 2.0808,-3.07289 4.00433,-3.77852l1.77836,2.93632l3.55671,-0.4211c1.75416,0.44386 2.10499,2.21931 4.01643,2.51522l-0.67747,2.82251z"/>
   <path stroke="null" id="svg_368" d="m637.5788,53.15543l1.99612,1.46816c-0.08468,3.67609 -3.04861,4.66625 -5.33507,6.28236l-1.5606,-1.88926l-2.44373,0.62596c-0.17058,-3.19809 -1.94772,-4.87111 -5.34717,-5.01906l-1.74206,-1.63888l-2.26226,-0.87634c2.10499,-3.03875 4.77858,-5.55397 8.00866,-7.53428l1.5606,1.87788l2.44494,-0.62596l0,2.51522c1.19646,0.55767 2.39413,1.10397 2.67358,2.51522l2.67358,0l-0.66658,2.29898z"/>
   <path stroke="null" id="svg_369" d="m626.89656,64.46823l1.99491,1.45678c-1.20977,2.21931 -2.98812,3.89233 -5.33507,5.03044l-1.5606,-1.88926l-2.45462,0.63734c-0.15848,-3.19809 -1.93684,-4.88249 -5.33507,-5.03044l0.66537,-2.29898l-2.00821,-1.46816c2.27436,-2.4697 3.1212,-6.28236 6.67912,-7.54566l0.94241,2.13965l1.73118,1.63888c1.20977,2.20793 2.98812,3.88095 5.34717,5.01906l-0.66658,2.31036z"/>
   <path stroke="null" id="svg_370" fill="#3E3D40" d="m617.20632,72.20738c1.02951,1.19501 1.69367,2.67456 1.76626,3.90371c-2.38324,2.9477 -5.39556,5.37188 -8.10423,8.03505l0.66537,-1.87788l-1.33195,0l-2.00821,-0.63734c2.49333,-3.50538 6.14562,-5.95231 8.68734,-9.42354l0.32543,0z"/>
   <path stroke="null" id="svg_371" fill="#915E36" d="m616.20222,96.71087l-0.66537,1.88926c-6.2545,11.34695 -17.56582,19.60962 -26.71165,28.89659c-29.24007,29.73879 -58.21398,58.5671 -86.81287,87.95308c-38.45849,39.52653 -75.53785,80.55537 -116.19811,116.84967l-1.99612,0.62596c-0.496,-0.68287 -1.0162,-1.36573 -1.87514,-2.00307c-0.07259,-0.70563 -0.13307,-1.52507 -0.13307,-2.39003c79.9414,-75.41112 155.29778,-155.62506 234.39234,-231.82147z"/>
   <path stroke="null" id="svg_372" fill="#F8B662" d="m440.58035,292.09008c16.57381,19.07471 32.7375,40.41426 30.71719,69.10599c-1.92474,27.22357 -21.2556,39.80082 -40.06748,49.00812c-10.68224,5.2353 -23.68724,8.02367 -33.38957,13.81665c-17.02142,10.18608 -17.04562,31.09314 -18.703,51.52334c-2.73407,33.91565 -18.00133,68.59384 -40.06748,87.95194c-10.56127,9.27559 -27.29234,19.31485 -46.74539,21.36345c-55.47991,5.8385 -97.48302,-21.94275 -125.53751,-46.4929c-11.10566,-9.71945 -23.15494,-23.59187 -33.38957,-37.69304c-9.93219,-13.68121 -20.98946,-31.60643 -25.38091,-45.23984c-11.11776,-34.51885 0.81054,-70.65382 20.03374,-89.20614c20.19101,-19.48329 57.101,-34.96272 90.8172,-37.69418c27.21976,-2.20793 41.60388,-1.76407 52.09256,-21.36231c6.43596,-12.00705 7.59734,-24.67421 13.35583,-35.17896c5.34717,-9.7536 13.13807,-20.61116 22.70733,-27.64467c30.87325,-22.68252 82.26415,-6.84004 98.82586,16.33187c-14.09378,17.73174 -32.79678,31.12729 -48.07614,47.75506l-2.67358,0l0.66537,2.29898c-38.71254,-12.58749 -78.34451,32.67512 -55.41942,65.23642l0,1.57059c-19.17481,18.09594 -37.13984,36.77231 -56.76226,54.65201l0.66537,-1.88812l-2.67358,0c-10.79112,-12.0412 -23.92919,-21.8756 -34.72031,-33.91679c-2.54051,2.11688 -21.21931,14.36294 -21.37658,17.58379c-0.09678,2.19769 9.13374,8.59272 12.02508,11.31281c28.61099,26.91515 61.34728,59.76212 85.48213,81.67072c6.87148,-5.67917 11.57747,-13.39555 17.36016,-20.11039c-8.50466,-11.68952 -19.91276,-20.63392 -30.71598,-30.14851l-2.00942,-0.6271c19.63452,-19.42752 40.16426,-38.66157 57.76637,-59.68245c1.12508,-0.02276 2.21387,0.09105 3.23008,0.206c32.50644,12.3371 69.0172,-20.97649 60.10122,-52.35302l2.44373,0.62596c15.30355,-18.68889 33.92186,-34.25823 49.41898,-52.77526z"/>
   <path stroke="null" id="svg_373" fill="#41281B" d="m388.71764,344.23824c8.91598,31.37653 -27.59478,64.69013 -60.10122,52.35302c0.97991,-2.25346 2.46792,-4.24515 3.44784,-6.48722l1.99612,0c26.32453,7.39771 55.08069,-20.69083 45.07592,-44.92117l0,-3.14232c2.10499,-1.29744 4.05272,-2.66204 6.01254,-4.08467l-0.66537,1.88926c2.31065,0.75115 -0.09678,5.95231 2.67358,6.2835l1.5606,-1.8904z"/>
   <path stroke="null" id="svg_374" fill="#915E36" d="m383.15272,338.58184l1.99612,-0.62596c-1.95982,1.42264 -3.90755,2.78837 -6.01254,4.08467c-0.59279,-1.06868 -1.45172,-2.98185 -2.66149,-4.40448c-0.03629,-0.89911 -0.04839,-1.94617 -0.13307,-2.69732c1.68158,-1.41126 4.04062,-2.57213 5.60122,-4.01753c0.85893,0.63734 1.37913,1.32021 1.87514,2.00307l-2.00821,0.63734c0.42342,1.69692 1.89933,2.39117 1.34284,5.0202z"/>
   <path stroke="null" id="svg_375" fill="#915E36" d="m381.80987,328.53234c0,0.86496 0.06049,1.6844 0.13307,2.39003c-1.5606,1.4454 -3.91964,2.60627 -5.60122,4.01753c-2.02031,-1.63888 -3.75028,-3.89233 -5.2141,-5.15563c-0.0242,-0.38696 -0.06049,-0.77391 -0.13307,-1.12673c2.20178,-1.30883 4.40355,-2.62903 6.14562,-4.51829c1.69367,1.59335 3.19378,2.99323 4.6697,4.3931z"/>
   <path stroke="null" id="svg_376" fill="#41281B" d="m379.13629,345.18287c10.00477,24.23035 -18.75139,52.31888 -45.07592,44.92117c1.46382,-3.02737 4.33097,-5.08735 5.6859,-8.17162l0.66537,1.88812c18.49734,-3.53838 30.81276,-12.90616 32.04673,-32.67512l-1.99612,-0.62596c3.45993,-0.98902 5.12941,-4.50577 8.67403,-5.33659z"/>
   <path stroke="null" id="svg_377" fill="#915E36" d="m379.13629,342.04169l0,3.14232c-3.54462,0.82968 -5.2141,4.34644 -8.67403,5.33659l0.66537,-1.88926c0.30244,-2.36727 -1.50011,-2.76561 -1.33074,-5.01792l-0.67747,-1.2633c2.75827,-1.13811 4.23418,-4.09719 7.35538,-4.71177c1.20977,1.4215 2.0687,3.33352 2.66149,4.40334z"/>
   <path stroke="null" id="svg_378" fill="#915E36" d="m371.793,319.10879c1.77836,1.67302 3.56881,3.34604 5.34717,5.03044c-1.74206,1.88926 -3.94384,3.20947 -6.14562,4.51829c-2.15339,-1.5023 -3.81077,-2.74284 -5.2141,-3.89233c2.00821,-1.88926 4.01643,-3.76714 6.01254,-5.6564z"/>
   <path stroke="null" id="svg_379" fill="#915E36" d="m376.34173,334.93989c0.08468,0.75115 0.09678,1.79821 0.13307,2.69732c-3.1212,0.61458 -4.59711,3.57366 -7.35538,4.71177l0.67747,-1.25192c-1.91143,-0.30843 -2.26226,-2.07136 -4.01643,-2.51522l0,-1.25192l-1.99612,-0.62596c2.44373,-2.31036 4.89956,-4.60934 7.34329,-6.9197c1.46382,1.2633 3.19378,3.51676 5.2141,5.15563z"/>
   <path stroke="null" id="svg_380" d="m370.46226,350.52061l1.99612,0.62596c-1.23396,19.76896 -13.54939,29.13673 -32.04673,32.67512l-0.66537,-1.88812l-2.00821,-0.6271l-5.34717,0l-1.33074,-0.62596l-1.33074,0.62596l0,-1.26216c-2.66149,-0.01138 -1.70577,-3.42571 -5.34717,-2.50384l0.66537,-1.88926l-1.99612,-0.62596c-1.75416,-0.44386 -2.10499,-2.21931 -4.01643,-2.51522l0.67747,-1.88926l-2.00821,-0.62596c-2.52841,-0.13657 -0.93152,-4.1541 -4.00433,-3.76828l0.66537,-1.25192l-0.66537,-1.2633c-6.59323,-24.48073 12.10977,-41.93933 37.3939,-36.43088l1.33074,0.62596l1.34284,-0.62596l0,1.25192c1.18557,0.97877 3.01232,1.35435 5.33507,1.25192l-0.66537,1.88926l2.00821,0.62596c1.75416,0.44386 2.0929,2.21931 4.00433,2.51522l-0.66537,1.88926l1.99612,0.62596l0,1.25192c1.75416,0.44386 2.10499,2.20793 4.01643,2.51522l-0.67747,1.25192l0.67747,1.2633c-0.16937,2.25232 1.63319,2.65066 1.33074,5.01792l-0.66537,1.8904z"/>
   <path stroke="null" id="svg_381" fill="#915E36" d="m371.12763,329.78426c-2.44373,2.31036 -4.89956,4.60934 -7.34329,6.9197l0.66537,-1.88926c-1.91143,-0.29591 -2.25017,-2.07136 -4.00433,-2.51522l-2.00821,-0.62596c2.37114,-2.1055 4.58502,-4.34758 6.14562,-7.03352c0.37503,0.06829 0.78635,0.09105 1.19767,0.12519c1.40333,1.14949 3.06071,2.39003 5.2141,3.89233c0.07259,0.35281 0.10888,0.73977 0.13307,1.12673z"/>
   <path stroke="null" id="svg_382" fill="#41281B" d="m361.77613,315.96761l2.33485,-1.25192c-1.0404,2.18517 -2.25017,4.30205 -3.66559,6.28236l-2.67358,0c-30.18368,-17.01473 -69.59789,21.08916 -50.74972,48.9956l0,2.51522c-2.0808,1.37711 -4.36726,2.44693 -6.67791,3.45985c-22.92508,-32.5613 16.70688,-77.82391 55.41942,-65.23642l-1.99612,1.46816c1.77836,2.09412 5.93996,1.94617 8.00866,3.76714z"/>
   <path stroke="null" id="svg_383" fill="#915E36" d="m360.44539,320.99805c1.0283,0.81944 2.66149,2.0486 4.1374,3.64195c-1.5606,2.68594 -3.77447,4.92801 -6.14562,7.03352l0.66537,-1.88926c-2.32275,0.10243 -4.1495,-0.27315 -5.33507,-1.25192l0,-1.25192l-1.34284,0.62596c1.43962,-2.5266 4.10111,-4.24515 5.34717,-6.90832l2.67358,0z"/>
   <path stroke="null" id="svg_384" fill="#41281B" d="m357.77181,320.99805c-1.24606,2.66318 -3.90755,4.38172 -5.34717,6.90832l-1.33074,-0.62596c-25.28413,-5.50845 -43.98713,11.95015 -37.3939,36.43088l0.66537,1.2633c-2.68568,1.34297 -4.51243,3.84681 -7.34329,5.01906c-18.84817,-27.90644 20.56604,-66.01034 50.74972,-48.9956z"/>
   <path stroke="null" id="svg_385" fill="#915E36" d="m337.73807,381.30646l2.00821,0.6271c-1.35494,3.08428 -4.22209,5.14425 -5.6859,8.17162l-1.99612,0c-2.04451,-0.83082 -4.48824,-0.73977 -6.01254,-2.51522c0.65327,-2.93632 3.79867,-4.32482 5.00844,-6.90832l1.33074,0.62596c1.79046,-0.00114 3.56881,-0.00114 5.34717,-0.00114z"/>
   <path stroke="null" id="svg_386" fill="#915E36" d="m329.72941,381.30646l1.33074,-0.62596c-1.20977,2.58465 -4.35516,3.972 -5.00844,6.90832c-0.96781,-0.03414 -2.0808,-0.04552 -2.86715,-0.12519c-1.76626,-1.85512 -3.84706,-3.07289 -6.14562,-4.27929c2.67358,-2.50384 5.33507,-5.01906 8.00866,-7.53428l-0.66537,1.88926c3.6414,-0.92187 2.68568,2.49246 5.34717,2.50384l0,1.2633z"/>
   <path stroke="null" id="svg_387" fill="#915E36" d="m326.05172,387.58882c1.52431,1.77545 3.96804,1.68326 6.01254,2.51522c-0.97991,2.24208 -2.46792,4.23377 -3.44784,6.48722c-1.0162,-0.11495 -2.10499,-0.22762 -3.23008,-0.206c-1.5364,-0.65897 -4.23418,-1.77545 -7.01665,-3.14118c2.00821,-1.63774 3.41154,-3.71024 4.81487,-5.78159c0.78635,0.08081 1.89933,0.09219 2.86715,0.12633z"/>
   <path stroke="null" id="svg_388" fill="#915E36" d="m325.04761,375.65006c-2.67358,2.51522 -5.33507,5.03044 -8.00866,7.53428c-1.77836,-1.67302 -3.56881,-3.34604 -5.34717,-5.01906c2.97603,-2.31036 4.85117,-5.54259 8.02075,-7.54566l-0.67747,1.88926c1.91143,0.29591 2.26226,2.07136 4.01643,2.51522l1.99612,0.62596z"/>
   <path stroke="null" id="svg_389" fill="#915E36" d="m318.3697,393.24523c2.78246,1.36573 5.48024,2.48222 7.01665,3.14118c-17.60211,21.02088 -38.13185,40.25492 -57.76637,59.68245l0.66537,-1.88926c-1.94772,-1.09258 -4.23418,-1.87674 -4.00433,-5.03044l-2.00821,0.63848c18.34007,-19.10999 38.05927,-37.3425 56.09689,-56.5424z"/>
   <path stroke="null" id="svg_390" fill="#915E36" d="m317.70432,369.99366l2.00821,0.62596c-3.16959,2.00307 -5.04473,5.2353 -8.02075,7.54566c-1.43962,-1.96779 -2.97603,-3.86843 -4.6697,-5.6564l0,-2.51522c2.83085,-1.17225 4.6576,-3.67609 7.34329,-5.01906l-0.66537,1.25192c3.07281,-0.38696 1.47592,3.63057 4.00433,3.76714z"/>
   <path stroke="null" id="svg_391" fill="#915E36" d="m323.18457,387.46363c-1.40333,2.07136 -2.80666,4.14386 -4.81487,5.78159c-2.17758,-1.29744 -4.42775,-2.48108 -6.14562,-4.27929c1.58479,-1.95755 2.70988,-4.211 4.81487,-5.78159c2.29856,1.2064 4.37936,2.42417 6.14562,4.27929z"/>
   <path stroke="null" id="svg_392" fill="#915E36" d="m311.69178,378.16528c1.77836,1.67302 3.56881,3.34604 5.34717,5.01906c-2.10499,1.57059 -3.23008,3.82405 -4.81487,5.78159c-0.37503,-0.05691 -0.77425,-0.10243 -1.19767,-0.12519c-1.77836,-1.67302 -3.55671,-3.3449 -5.34717,-5.01906c-0.0242,-0.39834 -0.06049,-0.78416 -0.13307,-1.13811c2.20178,-1.30883 4.40355,-2.62903 6.14562,-4.51829z"/>
   <path stroke="null" id="svg_393" fill="#915E36" d="m312.22408,388.96594c1.71787,1.79821 3.96804,2.98185 6.14562,4.27929c-18.03762,19.1999 -37.75683,37.43355 -56.09689,56.5424l0.67747,-1.88926c-3.39945,-0.16047 -5.1899,-1.83236 -5.34717,-5.03044l-2.00821,0.63734c18.82397,-18.00489 37.24872,-36.24878 55.43152,-54.66339c0.42342,0.02162 0.82264,0.06715 1.19767,0.12405z"/>
   <path stroke="null" id="svg_394" fill="#915E36" d="m305.67924,383.82168c1.79046,1.67416 3.56881,3.34604 5.34717,5.01906c-18.1828,18.41575 -36.60755,36.6585 -55.43152,54.66339l0.67747,-1.88926c-1.83885,0.05691 -2.93973,-0.59182 -4.01643,-1.25192l0,-2.51522l-1.99612,0.62596c18.1586,-18.39185 36.92209,-36.44226 55.41942,-54.65201z"/>
   <path stroke="null" id="svg_395" fill="#915E36" d="m307.02208,372.50888c1.69367,1.78683 3.23008,3.68747 4.6697,5.6564c-1.74206,1.88926 -3.94384,3.20947 -6.14562,4.51829c-2.00821,-1.6275 -3.73818,-3.89233 -5.202,-5.14425l0,-1.57059c2.31065,-1.01292 4.59711,-2.08274 6.67791,-3.45985z"/>
   <path stroke="null" id="svg_396" fill="#915E36" d="m305.54617,382.68357c0.07259,0.35395 0.10888,0.73977 0.13307,1.13811c-18.49734,18.20975 -37.26082,36.26016 -55.41942,54.65314l0.66537,-1.88926c-1.83885,0.05691 -2.92764,-0.59182 -4.00433,-1.25192c0,-1.2633 -1.08879,-1.49206 -1.34284,-2.51522l-1.99612,-0.6271c19.62242,-17.8797 37.58746,-36.55493 56.76226,-54.65201c1.46382,1.25192 3.19378,3.51676 5.202,5.14425z"/>
   <path stroke="null" id="svg_397" d="m300.34417,486.84333c-5.78269,6.71484 -10.48868,14.43123 -17.36016,20.11039c-24.13485,-21.9086 -56.87114,-54.75443 -85.48213,-81.67072c-2.89134,-2.72122 -12.12186,-9.11625 -12.02508,-11.31281c0.15727,-3.22085 18.83607,-15.4669 21.37658,-17.58379c10.79112,12.0412 23.92919,21.8756 34.72031,33.91679l2.67358,0l-0.66537,1.88812l1.99612,0.6271c0.25405,1.02316 1.34284,1.25192 1.34284,2.51522c1.07669,0.6601 2.16548,1.30769 4.00433,1.25192l-0.66537,1.88926l1.99612,-0.62596l0,2.51522c1.07669,0.6601 2.17758,1.30769 4.01643,1.25192l-0.67747,1.88926l2.00821,-0.63734c0.15727,3.19809 1.94772,4.86997 5.34717,5.03044l-0.67747,1.88926l2.00821,-0.63848c-0.22986,3.1537 2.0566,3.93786 4.00433,5.03044l-0.66537,1.88926l2.00821,0.62596c10.80322,9.51459 22.21132,18.46013 30.71598,30.14851zm-17.36016,10.06089c2.32275,-4.09719 6.66582,-6.29374 8.00866,-11.31167c-7.66992,-4.50691 -11.25083,-12.87315 -20.03374,-16.33301c-1.42752,2.84527 -3.03651,5.52097 -5.34717,7.53428c-15.70277,-16.62778 -33.34118,-31.45734 -48.07614,-48.9956c11.10566,-7.45462 -6.36337,-16.0132 -13.35583,-21.36345c-1.85094,3.71137 -6.16981,5.08849 -8.00866,8.79758c30.36515,25.87036 56.95583,55.30187 86.81287,81.67186zm-36.06315,-49.00698c5.32297,4.15296 15.30355,19.65515 20.03374,15.07995c-12.58158,-10.78928 -24.59456,-22.0907 -36.06315,-33.92817c-1.5727,-0.1821 -3.02442,-2.24208 -4.00433,0c7.30699,5.6803 13.80344,12.14476 20.03374,18.84823z"/>
   <path stroke="null" id="svg_398" fill="#915E36" d="m290.99267,485.59141c-1.34284,5.01792 -5.6859,7.21561 -8.00866,11.31167c-29.85705,-26.36999 -56.44772,-55.8015 -86.81287,-81.67072c1.83885,-3.71024 6.15771,-5.08735 8.00866,-8.79758c6.99245,5.34911 24.46149,13.90883 13.35583,21.36345c14.73496,17.53826 32.37336,32.36669 48.07614,48.9956c2.31065,-2.01445 3.91964,-4.68901 5.34717,-7.53428c8.78291,3.45985 12.36382,11.82495 20.03374,16.33187z"/>
   <path stroke="null" id="svg_399" fill="#915E36" d="m266.9546,462.97718c-4.73019,4.5752 -14.71077,-10.92699 -20.03374,-15.07995c-6.2303,-6.7046 -12.72675,-13.16792 -20.03374,-18.84823c0.97991,-2.24208 2.43163,-0.1821 4.00433,0c11.46859,11.83747 23.48158,23.1389 36.06315,33.92817z"/>
   <g stroke="#000" transform="matrix(1.2097669295619613,0,0,1.138109227382769,-3942.5793052004865,-2721.7383306574197) " id="svg_400" stroke-linecap="round" fill="none">
    <path stroke="null" id="svg_401" stroke-width="6.2452" d="m3760.14381,2464.95121c0.67,0.66 1.33,1.32 1.99,1.99"/>
    <path stroke="null" id="svg_402" stroke-width="3.5138" d="m3819.10381,2453.98121c2.36,0.29 5.5,1.32 5.59,4.18c0.051,1.55 -1.8,2.94 -2.539,3.28c-4.011,-0.4 -5.48,-4.85 -6.36,-8.19"/>
    <path stroke="null" id="svg_403" stroke-width="3.5603" d="m3806.13381,2463.05121c1.9,2.95 2.96,7.01 6.61,8.32c2,0.17 3.31,-1.97 3.199,-3.78c-1.229,-3.48 -5.399,-4.19 -8.02,-6.34"/>
    <path stroke="null" id="svg_404" stroke-width="3.5138" d="m3802.10381,2472.46121c4.11,0.02 7.301,6.11 2.37,7.74c-2.399,-0.26 -4.59,-2.61 -5.24,-4.87"/>
    <path stroke="null" id="svg_405" stroke-width="4.0647" d="m3806.22381,2443.68121c-0.58,2.41 -1.76,4.64 -3.68,6.26"/>
    <path stroke="null" id="svg_406" stroke-width="4.0044" d="m3802.17381,2439.63121c0.75,-3.93 4.45,-8.65 8.85,-6.95c1.391,1.05 2.12,2.96 1.94,4.68c-0.6,3.4 -3.46,5.71 -6.74,6.32"/>
    <path stroke="null" id="svg_407" stroke-width="6.3227" d="m3802.17381,2439.63121l4.05,4.05"/>
    <path stroke="null" id="svg_408" stroke-width="4.0564" d="m3795.03381,2444.64121c1.609,-2.55 4.18,-4.37 7.14,-5.01"/>
    <path stroke="null" id="svg_409" stroke-width="3.5679" d="m3790.39381,2461.80121c2.58,-0.77 4.67,-2.9 5.891,-5.24"/>
    <path stroke="null" id="svg_410" stroke-width="3.831" d="m3788.92381,2423.44121c1.15,-2.51 3.45,-4.35 6.14,-4.9c4.48,0.39 4.45,6.61 1.74,9.1"/>
    <path stroke="null" id="svg_411" stroke-width="3.9805" d="m3771.85381,2440.22121c0.79,-0.68 1.53,-1.41 2.2,-2.21"/>
    <path stroke="null" id="svg_412" stroke-width="3.9805" d="m3784.69381,2457.48121c0.82,-2.3 2.181,-4.34 3.721,-6.22"/>
    <path stroke="null" id="svg_413" stroke-width="3.3382" d="m3785.98381,2438.16121c1.9,-1.04 3.771,-3.02 4.78,-4.78"/>
    <path stroke="null" id="svg_414" stroke-width="3.3382" d="m3780.09381,2432.27121c1.04,-1.9 3.021,-3.78 4.78,-4.78"/>
    <path stroke="null" id="svg_415" stroke-width="3.3382" d="m3777.15381,2448.10121c1.899,-1.04 3.77,-3.03 4.779,-4.79"/>
    <path stroke="null" id="svg_416" stroke-width="1.8473" d="m3781.01381,2468.03121c-1.2,1.19 -6.24,6.36 -7.18,7.3"/>
    <path stroke="null" id="svg_417" stroke-width="3.6782" d="m3776.95381,2418.52121c-4.45,-1.17 -11.561,-7.33 -4.021,-9.89c2.66,-0.11 4.181,2.59 4.58,4.87"/>
    <path stroke="null" id="svg_418" stroke-width="3.8244" d="m3778.91381,2465.83121c2.439,2.15 7.09,3.81 8.54,-0.44"/>
    <path stroke="null" id="svg_419" stroke-width="4.1308" d="m3778.91381,2465.83121c-0.2,-1.01 -0.24,-2.13 -0.03,-3.16c0.3,-1.42 1.09,-2.67 2.68,-3.17"/>
    <path stroke="null" id="svg_420" stroke-width="2.1214" d="m3770.52381,2473.12121c2.641,-2.63 5.11,-5.47 8.391,-7.29"/>
    <path stroke="null" id="svg_421" stroke-width="1.9122" d="m3767.21381,2469.81121c1.35,-1.35 5.97,-5.59 11.67,-7.14c0.01,0 0.021,-0.01 0.03,-0.01"/>
    <path stroke="null" id="svg_422" stroke-width="3.5808" d="m3769.42381,2423.44121c-1.22,-2.46 -1.8,-3.89 -3.39,-5.21c-2.57,-1.05 -5.351,1.46 -5.511,3.98c0.511,2.95 3.94,3.54 5.591,5.65"/>
    <path stroke="null" id="svg_423" stroke-width="1.8922" d="m3769.14381,2454.90121c0.851,1.05 1.4,2.35 1.46,3.43c-1.97,2.59 -4.46,4.72 -6.699,7.06"/>
    <path stroke="null" id="svg_424" stroke-width="3.4912" d="m3769.14381,2454.90121c1,-0.12 3.04,-1.06 3.96,-2.76"/>
    <path stroke="null" id="svg_425" stroke-width="3.5489" d="m3768.87381,2454.90121c-3.51,-1.25 -6.601,-6.88 -1.66,-8.64"/>
    <path stroke="null" id="svg_426" stroke-width="4.416" d="m3768.87381,2454.90121l0.27,0"/>
    <path stroke="null" id="svg_427" stroke-width="1.6136" d="m3761.69381,2463.18121c2.061,-3.08 5.08,-5.23 7.181,-8.28"/>
    <path stroke="null" id="svg_428" stroke-width="3.7601" d="m3760.59381,2433.38121c-0.06,-5.18 -7.74,-9.03 -8.9,-2.34c0.49,2.75 3.48,3.69 5.58,4.91"/>
    <path stroke="null" id="svg_429" stroke-width="1.5613" d="m3572.35381,2691.99121c1.74,-1.14 3.35,-2.339 4.97,-3.589"/>
    <path stroke="null" id="svg_430" stroke-width="3.864" d="m3570.15381,2688.12121c1,1.25 1.71,2.93 2.2,3.87"/>
    <path stroke="null" id="svg_431" stroke-width="2.0282" d="m3570.15381,2688.12121c-2.58,0.54 -3.8,3.14 -6.08,4.14"/>
    <path stroke="null" id="svg_432" stroke-width="3.7438" d="m3574.67381,2682.22121c0.71,0.56 1.14,1.16 1.55,1.76"/>
    <path stroke="null" id="svg_433" stroke-width="4.4845" d="m3574.56381,2680.12121c0,0.76 0.05,1.48 0.11,2.1"/>
    <path stroke="null" id="svg_434" stroke-width="1.7304" d="m3574.56381,2680.12121c66.08,-66.26 128.37,-136.74 193.75,-203.69"/>
    <path stroke="null" id="svg_435" stroke-width="2.0817" d="m3572.35381,2694.75121c-2.93,0.729 -4.31,3.819 -7.17,4.689"/>
    <path stroke="null" id="svg_436" stroke-width="4.4709" d="m3572.35381,2694.75121l0,-2.761"/>
    <path stroke="null" id="svg_437" stroke-width="4.4845" d="m3570.04381,2685.75121c0.07,0.66 0.08,1.58 0.11,2.37"/>
    <path stroke="null" id="svg_438" stroke-width="2.3233" d="m3570.04381,2685.75121c1.39,-1.24 3.34,-2.26 4.63,-3.53"/>
    <path stroke="null" id="svg_439" stroke-width="1.7045" d="m3570.70381,2676.26121c63.81,-67.61 129.2,-134.52 192.9,-202.24c0.29,-0.3 0.57,-0.6 0.851,-0.9"/>
    <path stroke="null" id="svg_440" stroke-width="3.2501" d="m3570.70381,2676.26121c1.4,1.4 2.64,2.63 3.86,3.86"/>
    <path stroke="null" id="svg_441" stroke-width="2.0788" d="m3535.09381,2734.22121c1.21,-2.66 3.58,-4.47 4.7,-7.18"/>
    <path stroke="null" id="svg_442" stroke-width="3.6882" d="m3535.09381,2734.22121c21.76,6.5 45.53,-18.18 37.26,-39.47"/>
    <path stroke="null" id="svg_443" stroke-width="3.4561" d="m3565.73381,2681.22121c1.21,1.11 2.64,3.09 4.31,4.53"/>
    <path stroke="null" id="svg_444" stroke-width="2.1521" d="m3565.73381,2681.22121c-2.02,2.03 -4.05,4.05 -6.07,6.08"/>
    <path stroke="null" id="svg_445" stroke-width="1.7262" d="m3561.89381,2668.53121c65.65,-67.11 130.32,-135.23 196.49,-202.03"/>
    <path stroke="null" id="svg_446" stroke-width="1.7106" d="m3566.28381,2671.84121c64.34,-67.58 129.93,-133.64 193.95,-201.41c0.301,-0.32 0.61,-0.64 0.91,-0.96"/>
    <path stroke="null" id="svg_447" stroke-width="3.2501" d="m3566.28381,2671.84121c1.47,1.47 2.95,2.94 4.42,4.42"/>
    <path stroke="null" id="svg_448" stroke-width="3.8171" d="m3530.59381,2739.92121c26.87,10.84 57.05,-18.431 49.68,-46"/>
    <path stroke="null" id="svg_449" stroke-width="2.208" d="m3533.44381,2734.22121c-0.81,1.97 -2.04,3.72 -2.85,5.7"/>
    <path stroke="null" id="svg_450" stroke-width="4.4618" d="m3533.44381,2734.22121l1.65,0"/>
    <path stroke="null" id="svg_451" stroke-width="4.4845" d="m3565.62381,2680.23121c0.06,0.31 0.09,0.65 0.11,0.99"/>
    <path stroke="null" id="svg_452" stroke-width="2.7991" d="m3565.62381,2680.23121c1.82,-1.15 3.64,-2.31 5.08,-3.97"/>
    <path stroke="null" id="svg_453" stroke-width="3.6616" d="m3566.28381,2671.84121c-1.46,-1.11 -3.02,-2.09 -4.39,-3.31c-0.2,-0.18 -0.39,-0.36 -0.58,-0.55"/>
    <path stroke="null" id="svg_454" stroke-width="1.7488" d="m3527.92381,2739.74121c-14.55,18.47 -31.52,35.37 -47.75,52.44"/>
    <path stroke="null" id="svg_455" stroke-width="4.4845" d="m3527.92381,2739.74121c0.93,-0.02 1.83,0.08 2.67,0.181"/>
    <path stroke="null" id="svg_456" stroke-width="2.0282" d="m3528.47381,2732.01121c0.54,-2.58 3.14,-3.8 4.14,-6.07"/>
    <path stroke="null" id="svg_457" stroke-width="3.7166" d="m3528.47381,2732.01121c1.26,1.56 3.28,1.479 4.97,2.21"/>
    <path stroke="null" id="svg_458" stroke-width="3.6616" d="m3561.31381,2676.81121c1.16,1.01 2.53,2.1 4.31,3.42"/>
    <path stroke="null" id="svg_459" stroke-width="2.4331" d="m3561.31381,2676.81121c1.66,-1.66 3.32,-3.31 4.97,-4.97"/>
    <path stroke="null" id="svg_460" stroke-width="3.7924" d="m3522.12381,2736.98121c2.3,1.2 4.53,2.181 5.8,2.76"/>
    <path stroke="null" id="svg_461" stroke-width="4.4845" d="m3526.10381,2731.90121c0.65,0.07 1.57,0.08 2.37,0.11"/>
    <path stroke="null" id="svg_462" stroke-width="2.5496" d="m3526.10381,2731.90121c-1.16,1.82 -2.32,3.641 -3.98,5.08"/>
    <path stroke="null" id="svg_463" stroke-width="4.4845" d="m3560.32381,2676.70121c0.31,0.06 0.65,0.08 0.99,0.11"/>
    <path stroke="null" id="svg_464" stroke-width="2.208" d="m3560.32381,2676.70121c-1.29,2.36 -3.12,4.33 -5.08,6.18"/>
    <path stroke="null" id="svg_465" stroke-width="1.6831" d="m3522.12381,2736.98121c-14.91,16.87 -31.21,32.891 -46.37,49.681"/>
    <path stroke="null" id="svg_466" stroke-width="2.1521" d="m3521.02381,2728.14121c2.21,-2.2 4.41,-4.41 6.62,-6.62"/>
    <path stroke="null" id="svg_467" stroke-width="3.6281" d="m3521.02381,2728.14121c1.9,1.06 3.62,2.13 5.08,3.76"/>
    <path stroke="null" id="svg_468" stroke-width="2.3849" d="m3556.90381,2673.50121c1.17,-1.74 2.17,-3.6 3.03,-5.52"/>
    <path stroke="null" id="svg_469" stroke-width="3.5489" d="m3556.90381,2673.50121c0.85,0.72 2.2,1.8 3.42,3.2"/>
    <path stroke="null" id="svg_470" stroke-width="3.6281" d="m3517.04381,2733.22121c1.42,1.58 3.28,2.62 5.08,3.76"/>
    <path stroke="null" id="svg_471" stroke-width="2.7991" d="m3521.02381,2728.14121c-1.74,1.38 -2.67,3.36 -3.98,5.08"/>
    <path stroke="null" id="svg_472" stroke-width="4.4709" d="m3554.69381,2673.50121l2.21,0"/>
    <path stroke="null" id="svg_473" stroke-width="2.1771" d="m3554.69381,2673.50121c-1.03,2.34 -3.23,3.85 -4.42,6.07"/>
    <path stroke="null" id="svg_474" stroke-width="1.7205" d="m3516.05381,2733.11121c-15.03,16.181 -30.26,32.21 -45.82,48.03"/>
    <path stroke="null" id="svg_475" stroke-width="4.4845" d="m3516.05381,2733.11121c0.35,0.021 0.68,0.061 0.99,0.11"/>
    <path stroke="null" id="svg_476" stroke-width="3.2501" d="m3516.60381,2723.73121c1.47,1.47 2.95,2.94 4.42,4.41"/>
    <path stroke="null" id="svg_477" stroke-width="2.1867" d="m3516.60381,2723.73121c2.46,-2.03 4.01,-4.87 6.63,-6.63"/>
    <path stroke="null" id="svg_478" stroke-width="3.776" d="m3512.74381,2716.55121c-15.58,-24.521 17,-58 41.95,-43.05"/>
    <path stroke="null" id="svg_479" stroke-width="2.1771" d="m3512.74381,2716.55121c2.34,-1.03 3.85,-3.23 6.07,-4.41"/>
    <path stroke="null" id="svg_480" stroke-width="3.275" d="m3511.63381,2728.70121c1.48,1.471 2.95,2.94 4.42,4.41"/>
    <path stroke="null" id="svg_481" stroke-width="1.7043" d="m3511.63381,2728.70121c-15.29,16 -30.8,31.86 -45.81,48.021"/>
    <path stroke="null" id="svg_482" stroke-width="3.6616" d="m3512.74381,2718.76121c1.4,1.57 2.67,3.24 3.86,4.97"/>
    <path stroke="null" id="svg_483" stroke-width="4.4709" d="m3512.74381,2718.76121l0,-2.21"/>
    <path stroke="null" id="svg_484" stroke-width="4.4845" d="m3511.52381,2727.70121c0.06,0.311 0.09,0.65 0.11,1"/>
    <path stroke="null" id="svg_485" stroke-width="3.0981" d="m3511.52381,2727.70121c1.82,-1.149 3.64,-2.31 5.08,-3.97"/>
    <path stroke="null" id="svg_486" stroke-width="3.6321" d="m3507.22381,2721.80121c-18.95,-28.61 13.81,-68.38 45.81,-57.32"/>
    <path stroke="null" id="svg_487" stroke-width="2.3849" d="m3507.22381,2721.80121c1.91,-0.89 3.8,-1.83 5.52,-3.04"/>
    <path stroke="null" id="svg_488" stroke-width="3.4561" d="m3507.22381,2723.18121c1.21,1.1 2.64,3.09 4.3,4.52"/>
    <path stroke="null" id="svg_489" stroke-width="4.4618" d="m3507.22381,2723.18121l0,-1.38"/>
    <path stroke="null" id="svg_490" stroke-width="1.739" d="m3460.30381,2771.20121c16.22,-15.71 31.07,-32.119 46.92,-48.02"/>
   </g>
  </g>
 </g>
</svg>